<svg width="36" height="42" viewBox="0 0 36 42" fill="none" xmlns="http://www.w3.org/2000/svg">
<mask id="mask0_387_1961" style="mask-type:luminance" maskUnits="userSpaceOnUse" x="0" y="0" width="36" height="42">
<path d="M35.161 0.419312H0.322266V41.0645H35.161V0.419312Z" fill="white"/>
</mask>
<g mask="url(#mask0_387_1961)">
<path fill-rule="evenodd" clip-rule="evenodd" d="M1.66131 1.60962C1.26453 1.60962 1 1.91932 1 2.27415V39.9773C1 40.329 1.26453 40.6387 1.66131 40.6387H29.6935C30.0451 40.6387 30.3516 40.329 30.3516 39.9773V8.45477L23.5419 1.60962H1.66131Z" fill="white"/>
<path fill-rule="evenodd" clip-rule="evenodd" d="M27.7744 5.80652V40.6388H29.7099C30.0518 40.6388 30.3518 40.3291 30.3518 39.9775V8.45489L27.7744 5.80652Z" fill="#27B262"/>
<path fill-rule="evenodd" clip-rule="evenodd" d="M23.5835 1.60962L23.6254 7.6838C23.6254 8.03219 23.9319 8.33865 24.2835 8.33865L30.3512 8.38381L23.5835 1.60962Z" fill="#27B262"/>
<path fill-rule="evenodd" clip-rule="evenodd" d="M11.194 11.2871C10.3585 11.2871 10.3585 12.5742 11.194 12.5742H25.9682C26.8037 12.5742 26.8037 11.2871 25.9682 11.2871H11.194Z" fill="#27B262"/>
<path fill-rule="evenodd" clip-rule="evenodd" d="M11.194 13.5452C10.3585 13.5452 10.3585 14.8355 11.194 14.8355H25.9682C26.8037 14.8355 26.8037 13.5452 25.9682 13.5452H11.194Z" fill="#27B262"/>
<path fill-rule="evenodd" clip-rule="evenodd" d="M5.2582 11.2903C4.88078 11.2903 4.59694 11.5967 4.59694 11.9451V14.1774C4.55177 14.529 4.88078 14.8354 5.2582 14.8354H7.66468C8.09049 14.8354 8.41951 14.529 8.41951 14.1774V11.9451C8.41951 11.5967 8.09049 11.2903 7.70985 11.2903H5.2582Z" fill="#156738"/>
<path fill-rule="evenodd" clip-rule="evenodd" d="M11.194 21.2871C10.3585 21.2871 10.3585 22.5742 11.194 22.5742H25.9682C26.8037 22.5742 26.8037 21.2871 25.9682 21.2871H11.194Z" fill="#27B262"/>
<path fill-rule="evenodd" clip-rule="evenodd" d="M11.194 23.8677C10.3585 23.8677 10.3585 24.8354 11.194 24.8354H25.9682C26.8037 24.8354 26.8037 23.8677 25.9682 23.8677H11.194Z" fill="#27B262"/>
<path fill-rule="evenodd" clip-rule="evenodd" d="M5.2582 21.2902C4.88078 21.2902 4.59694 21.5966 4.59694 21.945V24.1772C4.55177 24.5289 4.88078 24.8353 5.2582 24.8353H7.66468C8.09049 24.8353 8.41951 24.5289 8.41951 24.1772V21.945C8.41951 21.5966 8.09049 21.2902 7.70985 21.2902H5.2582Z" fill="#156738"/>
<path fill-rule="evenodd" clip-rule="evenodd" d="M11.194 31.6096C10.3585 31.6096 10.3585 32.5774 11.194 32.5774H25.9682C26.8037 32.5774 26.8037 31.6451 25.9682 31.6096H11.194Z" fill="#27B262"/>
<path fill-rule="evenodd" clip-rule="evenodd" d="M11.194 33.8676C10.3585 33.8676 10.3585 35.1546 11.194 35.1546H25.9682C26.8037 35.1546 26.8037 33.8676 25.9682 33.8676H11.194Z" fill="#27B262"/>
<path fill-rule="evenodd" clip-rule="evenodd" d="M5.2582 31.6128C4.88078 31.6128 4.59694 31.9193 4.59694 32.2676V34.4999C4.55177 34.8483 4.88078 35.1547 5.2582 35.1547H7.66468C8.09049 35.1547 8.41951 34.8483 8.41951 34.4999V32.2676C8.41951 31.9193 8.09049 31.6128 7.70985 31.6128H5.2582Z" fill="#156738"/>
<path fill-rule="evenodd" clip-rule="evenodd" d="M14.5294 0C14.1714 0 13.9037 0.309659 13.9488 0.706433L14.2617 3.66128C14.3069 3.97096 14.5746 4.19032 14.8875 4.19032H17.4359C17.7488 4.19032 18.0133 3.97096 18.0617 3.66128L18.3746 0.706433C18.4166 0.309659 18.1521 0 17.7908 0H14.5294Z" fill="#27B262"/>
<path fill-rule="evenodd" clip-rule="evenodd" d="M24.6138 27.4193C24.2235 27.4193 23.9074 27.8516 24.0525 28.2548L27.4396 37.6483C27.5525 37.9193 27.8009 38.0612 28.0461 38.0612C28.2719 38.0612 28.5009 37.9419 28.6268 37.6903L29.7719 35.2999L33.3332 38.8677C33.4622 38.9741 33.6268 39.029 33.7913 39.029C33.959 39.029 34.1235 38.9741 34.2558 38.8677L35.5752 37.5161C35.8397 37.258 35.8397 36.8645 35.5752 36.6483L32.0138 33.0806L34.4332 31.9935C34.9171 31.7322 34.8719 30.9935 34.3429 30.8193L24.8461 27.4709C24.7655 27.4355 24.6912 27.4193 24.6138 27.4193Z" fill="#106E38"/>
</g>
</svg>
