<svg width="53" height="39" viewBox="0 0 53 39" fill="none" xmlns="http://www.w3.org/2000/svg">
<path fill-rule="evenodd" clip-rule="evenodd" d="M8.79395 17.2078V30.2449C13.8181 34.2401 19.9701 36.3236 26.1833 36.3236C29.4716 36.3236 32.7789 35.7405 35.9448 34.5491C36.5069 34.3751 37.069 34.1602 37.5851 33.9025C39.7454 32.957 41.7337 31.7086 43.5881 30.2449V17.2078H8.79395Z" fill="#29C65F"/>
<path fill-rule="evenodd" clip-rule="evenodd" d="M8.79395 17.2078V30.1723C11.3137 32.1831 14.1737 33.7664 17.2057 34.7941V17.2078H8.79395Z" fill="#156738"/>
<path fill-rule="evenodd" clip-rule="evenodd" d="M36.8968 19.1196C36.4188 19.1196 35.9447 19.4167 36.0135 20.0108V34.4118C36.6176 34.2401 37.2218 34.0279 37.78 33.7732V20.0108C37.8527 19.4167 37.3747 19.1196 36.8968 19.1196Z" fill="#156738"/>
<path fill-rule="evenodd" clip-rule="evenodd" d="M8.79395 17.2078V18.2803L26.168 24.8511L43.5881 18.2803V17.2078H8.79395Z" fill="#156738"/>
<path fill-rule="evenodd" clip-rule="evenodd" d="M26.1682 0L0 10.023V13.7265L26.1682 23.704L52.3824 13.7265V10.023L26.1682 0Z" fill="#29C65F"/>
<path fill-rule="evenodd" clip-rule="evenodd" d="M0 9.94312V13.6684L26.3824 23.704V20.0223L0 9.94312Z" fill="#156738"/>
<path fill-rule="evenodd" clip-rule="evenodd" d="M26.3824 8.02942C25.6216 8.02942 25.2392 9.14129 26.0422 9.56609L38.9351 15.4455V38.2173C38.9351 38.6521 39.2792 39 39.7074 39C40.1433 39 40.5295 38.6521 40.5295 38.2173V14.9213C40.4874 14.617 40.3154 14.3126 40.0554 14.1822L26.6884 8.08753C26.5813 8.04815 26.4819 8.02942 26.3824 8.02942Z" fill="#156738"/>
</svg>
