<svg width="43" height="43" viewBox="0 0 43 43" fill="none" xmlns="http://www.w3.org/2000/svg">
<path fill-rule="evenodd" clip-rule="evenodd" d="M16.7942 21.6791L12.2461 23.6864L10.3833 27.1452L16.491 28.0895L22.5987 27.1452L20.7386 23.6864L16.7942 21.6791Z" fill="#156738"/>
<path fill-rule="evenodd" clip-rule="evenodd" d="M2.66661 0C1.20199 0 0 1.21359 0 2.70997V21.1243C0 22.6207 1.20199 23.8169 2.66661 23.8169H30.6203C32.0821 23.8169 33.2841 22.6207 33.2841 21.1243V2.70997C33.2841 1.21359 32.0821 0 30.6203 0H2.66661Z" fill="#1A8246"/>
<path fill-rule="evenodd" clip-rule="evenodd" d="M9.50115 27.1794C8.24571 27.1794 8.24571 29.3138 9.50115 29.3138C9.51855 29.3138 9.53901 29.3138 9.55947 29.3104H23.7311C23.7485 29.3138 23.7687 29.3138 23.7892 29.3138C25.0418 29.3138 25.0418 27.1794 23.7892 27.1794C23.7687 27.1794 23.7485 27.1794 23.7311 27.1794H9.55947C9.53901 27.1794 9.51855 27.1794 9.50115 27.1794Z" fill="#156738"/>
<path fill-rule="evenodd" clip-rule="evenodd" d="M3.71658 2.13739C2.51276 2.13739 1.52881 3.11401 1.52881 4.3154V17.3635C1.52881 18.5619 2.4926 19.5415 3.71658 19.5415H29.2836C30.4902 19.5415 31.4537 18.5619 31.4537 17.3635V4.29525C31.4537 3.11402 30.4698 2.13739 29.2836 2.13739H3.71658Z" fill="white"/>
<path fill-rule="evenodd" clip-rule="evenodd" d="M29.4494 2.38786C30.4138 2.38786 31.1989 3.17086 31.1989 4.15329V17.2405C31.1989 18.2028 30.4138 18.9831 29.4494 18.9831H3.85422C2.86935 18.9831 2.08452 18.2028 2.08452 17.2405V4.15329C2.08452 3.19133 2.86935 2.40803 3.85422 2.40803L29.4494 2.38786ZM3.85422 1.52667C2.40578 1.52667 1.22119 2.70851 1.22119 4.15329V17.2405C1.22119 18.6826 2.38562 19.847 3.85422 19.847H29.4494C30.8975 19.847 32.0622 18.6826 32.0622 17.2405V4.13314C32.0622 2.70852 30.8773 1.52667 29.4494 1.52667H3.85422Z" fill="#156738"/>
<path fill-rule="evenodd" clip-rule="evenodd" d="M15.6649 15.5716C14.0952 15.5716 12.8297 16.8527 12.8498 18.4129V37.5592H40.3085V18.4129C40.3085 16.8411 39.0225 15.5716 37.4556 15.5716H15.7024C15.6881 15.5716 15.6765 15.5716 15.6649 15.5716Z" fill="#29C65F"/>
<path fill-rule="evenodd" clip-rule="evenodd" d="M16.2903 18.0176C15.5659 18.0176 14.9634 18.622 14.9634 19.3451V32.8868C14.9634 33.613 15.5659 34.1972 16.2903 34.1972H37.1511C37.8754 34.1972 38.4578 33.613 38.4578 32.8868V19.3451C38.478 18.622 37.8754 18.0176 37.1511 18.0176H16.2903Z" fill="white"/>
<path fill-rule="evenodd" clip-rule="evenodd" d="M16.3919 17.7123C15.4364 17.7123 14.6616 18.485 14.6616 19.4378V32.7598C14.6616 33.73 15.4364 34.5054 16.3919 34.5054H27.198C27.7776 34.5054 27.7776 33.6525 27.198 33.6525H16.3919C15.9155 33.6525 15.5167 33.2549 15.5167 32.7769V19.4378C15.5167 18.9629 15.9155 18.565 16.3919 18.565H37.0512C37.5276 18.565 37.9264 18.9629 37.9264 19.4378V32.7598C37.9264 33.2347 37.5276 33.6326 37.0512 33.6326H35.298C34.7211 33.6326 34.7211 34.4856 35.298 34.4856H37.0512C38.0067 34.4856 38.7815 33.73 38.7815 32.7769V19.4378C38.7815 18.485 38.0067 17.7123 37.0512 17.7123H16.3919Z" fill="#156738"/>
<path fill-rule="evenodd" clip-rule="evenodd" d="M13.1348 35.4214V38.1668H40.3082V35.4214H13.1348Z" fill="#156738"/>
<path fill-rule="evenodd" clip-rule="evenodd" d="M11.413 36.0323C11.0099 36.0323 10.688 36.3716 10.688 36.7964C10.688 38.0683 11.6738 39.0861 12.88 39.0861H40.276C41.4823 39.0861 42.4479 38.0683 42.4479 36.7964C42.4479 36.3716 42.1261 36.0323 41.7434 36.0323H11.413Z" fill="#29C65F"/>
<path fill-rule="evenodd" clip-rule="evenodd" d="M12.1546 27.1794C12.1344 27.1794 12.1173 27.1794 12.0968 27.1794H12.2126C12.1921 27.1794 12.175 27.1794 12.1546 27.1794ZM9.49252 27.1794C8.24533 27.1794 8.24533 29.3138 9.49252 29.3138C9.50993 29.3138 9.53009 29.3138 9.55025 29.3104H12.0968C10.9104 29.249 10.9104 27.2439 12.0968 27.1794H9.55025C9.53009 27.1794 9.50993 27.1794 9.49252 27.1794ZM12.0968 29.3104C12.1173 29.3138 12.1344 29.3138 12.1546 29.3138C12.175 29.3138 12.1921 29.3138 12.2126 29.3104H12.0968Z" fill="#156738"/>
<path fill-rule="evenodd" clip-rule="evenodd" d="M2.49987 0C1.12686 0 0 1.21359 0 2.70997V21.1243C0 22.6207 1.12686 23.8169 2.49987 23.8169H3.66461C2.27236 23.8169 1.16474 22.6207 1.16474 21.1243V2.70997C1.16474 1.23405 2.25617 0.0201554 3.64567 0H2.49987Z" fill="#156738"/>
<path fill-rule="evenodd" clip-rule="evenodd" d="M15.8059 15.5716C14.3159 15.5716 13.1338 16.8527 13.1338 18.4129V37.5592H14.0851V18.4129C14.0851 16.8411 15.2865 15.5716 16.7929 15.5716H15.8416C15.8279 15.5716 15.8169 15.5716 15.8059 15.5716Z" fill="#156738"/>
<path fill-rule="evenodd" clip-rule="evenodd" d="M11.6994 36.0323C11.3158 36.0323 10.9937 36.3716 10.9937 36.775C10.9937 38.0344 11.9434 39.0647 13.1338 39.0647C13.1457 39.0647 13.1573 39.0647 13.1689 39.0647H16.497C15.4281 38.9118 14.6005 37.9611 14.6005 36.7964C14.6005 36.3716 14.9227 36.0323 15.3264 36.0323H11.6994ZM16.497 39.0647C16.5926 39.08 16.6943 39.0861 16.796 39.0861V39.0647H16.497Z" fill="#156738"/>
<path fill-rule="evenodd" clip-rule="evenodd" d="M28.4756 30.8438C27.7484 30.8438 27.1792 31.4179 27.1792 32.1578V41.4366C27.1792 42.1735 27.7484 42.7507 28.4756 42.7507H34.1252C34.8349 42.7507 35.4215 42.1735 35.4215 41.4366V32.1578C35.4215 31.4179 34.8349 30.8438 34.1252 30.8438H28.4756Z" fill="#156738"/>
<path fill-rule="evenodd" clip-rule="evenodd" d="M28.4664 30.8438C27.7649 30.8438 27.1792 31.4179 27.1792 32.1548V41.4366C27.1792 42.1527 27.7649 42.7507 28.4664 42.7507H29.0115C28.307 42.7507 27.7243 42.1527 27.7243 41.4366V32.1548C27.7243 31.4179 28.307 30.8438 29.0115 30.8438H28.4664Z" fill="#156738"/>
<path fill-rule="evenodd" clip-rule="evenodd" d="M28.3326 32.3676C27.7063 32.3676 27.1792 32.8678 27.1792 33.4862V40.1051C27.1792 40.7263 27.7063 41.2238 28.3326 41.2238H34.2916C34.9179 41.2238 35.4215 40.7263 35.4215 40.1051V33.4862C35.4215 32.8678 34.9179 32.3676 34.2916 32.3676H28.3326Z" fill="white"/>
<path fill-rule="evenodd" clip-rule="evenodd" d="M27.79 32.6757C27.4293 32.8101 27.2018 33.1008 27.1792 33.4306V40.1412C27.2018 40.471 27.4293 40.7617 27.79 40.9156V32.6757Z" fill="#41B06E"/>
</svg>
