<svg width="35" height="41" viewBox="0 0 35 41" fill="none" xmlns="http://www.w3.org/2000/svg">
<path fill-rule="evenodd" clip-rule="evenodd" d="M5.0447 23.1189C4.93772 23.1189 4.82458 23.1497 4.71143 23.2206V23.1929L2.28147 24.6696C1.65379 25.018 2.00185 25.8905 2.57281 25.8905C2.6801 25.8905 2.79292 25.8627 2.90884 25.7918L5.34221 24.3459C5.96681 23.9729 5.60086 23.1189 5.0447 23.1189Z" fill="#29C65F"/>
<path fill-rule="evenodd" clip-rule="evenodd" d="M28.789 23.4272C28.2272 23.4272 27.8591 24.2966 28.4859 24.6697L30.9424 26.1002C31.0524 26.1711 31.1622 26.1988 31.2661 26.1988C31.8189 26.1988 32.1722 25.3356 31.5691 24.9903L29.1127 23.529C29.0026 23.4581 28.8898 23.4272 28.789 23.4272Z" fill="#29C65F"/>
<path fill-rule="evenodd" clip-rule="evenodd" d="M17.065 0C16.7305 0 16.4512 0.277461 16.4512 0.613502V3.3758C16.4512 3.79508 16.7567 4.00473 17.065 4.00473C17.3733 4.00473 17.6816 3.79508 17.6816 3.3758V0.613502C17.6816 0.277461 17.4023 0 17.065 0Z" fill="#29C65F"/>
<path fill-rule="evenodd" clip-rule="evenodd" d="M8.97675 2.15808C8.54607 2.15808 8.1274 2.60818 8.40054 3.11378L9.82919 5.52158C9.95405 5.7528 10.1529 5.85144 10.3521 5.85144C10.7797 5.85144 11.2073 5.40133 10.9131 4.89573L9.5144 2.48794C9.37783 2.25672 9.17591 2.15808 8.97675 2.15808Z" fill="#29C65F"/>
<path fill-rule="evenodd" clip-rule="evenodd" d="M2.87986 8.32397C2.30952 8.32397 1.96176 9.09471 2.58852 9.403L5.01571 10.7071C5.12855 10.7626 5.23832 10.7872 5.33944 10.7872C5.91564 10.7872 6.27509 10.0227 5.64525 9.6897L3.21559 8.41031C3.09967 8.35173 2.98684 8.32397 2.87986 8.32397Z" fill="#29C65F"/>
<path fill-rule="evenodd" clip-rule="evenodd" d="M0.597936 16.3396C-0.199312 16.3396 -0.199312 17.5666 0.597936 17.5666H3.19623C3.5409 17.5666 3.80574 17.2891 3.80574 16.9531C3.80574 16.6171 3.5409 16.3396 3.19623 16.3396H0.597936Z" fill="#29C65F"/>
<path fill-rule="evenodd" clip-rule="evenodd" d="M30.5834 16.6479C29.7079 16.6726 29.7079 17.875 30.5834 17.875H33.478C34.3261 17.875 34.3261 16.6479 33.478 16.6479H30.5834Z" fill="#29C65F"/>
<path fill-rule="evenodd" clip-rule="evenodd" d="M31.3041 8.32397C31.206 8.32397 31.0972 8.35479 30.9881 8.42261L28.703 9.85927C28.1659 10.2138 28.3787 11.0924 28.9996 11.0924C29.1056 11.0924 29.1867 11.0647 29.2931 11.003L31.5809 9.53863C32.171 9.19026 31.8411 8.32397 31.3041 8.32397Z" fill="#29C65F"/>
<path fill-rule="evenodd" clip-rule="evenodd" d="M25.3382 2.46338C25.1322 2.46338 24.9346 2.57745 24.8261 2.77167L23.4875 5.2072C23.2316 5.70972 23.6268 6.15982 24.0276 6.15982C24.2166 6.15982 24.4059 6.06427 24.5313 5.82996L25.8419 3.42217C26.0034 3.11079 25.9227 2.7131 25.6304 2.54662C25.5358 2.49113 25.4356 2.46338 25.3382 2.46338Z" fill="#29C65F"/>
<path fill-rule="evenodd" clip-rule="evenodd" d="M17.0662 6.77942C12.8891 6.77942 9.12512 9.33516 7.56484 13.2351C5.96973 17.2182 7.03242 21.7594 10.1964 24.6512C11.454 25.8011 12.1553 27.4536 12.1553 29.1646V35.5617C12.1553 36.5144 12.9094 37.3005 13.8904 37.3005H20.2447C21.2229 37.3005 22.0087 36.5144 22.0087 35.5617V29.1369C22.0087 27.3981 22.7363 25.7457 24.0231 24.5957C30.3222 18.7628 27.1289 8.21299 18.6496 6.89657C18.2013 6.84108 17.753 6.7825 17.3338 6.7825C17.2437 6.7825 17.1534 6.77942 17.0662 6.77942Z" fill="#FFF1DB"/>
<path fill-rule="evenodd" clip-rule="evenodd" d="M18.6206 6.78247C10.0888 8.10505 6.8909 18.7751 13.3161 24.6019C14.5502 25.758 15.2796 27.4166 15.2534 29.1338V35.5555C15.2534 36.5112 16.0383 37.3005 17.0218 37.3005H20.2197C21.2001 37.3005 21.9877 36.5112 21.9877 35.5555V29.106C21.9877 27.3611 22.7172 25.7025 24.0071 24.5464C30.3212 18.6919 27.1202 8.10505 18.6206 6.78247Z" fill="#FFDDA5"/>
<path fill-rule="evenodd" clip-rule="evenodd" d="M13.49 14.4805C14.1368 14.4805 14.6723 15.0077 14.6723 15.652V16.8482H13.3494C11.7454 16.8482 11.7454 14.4805 13.3494 14.4805H13.49ZM20.8077 14.4805C22.3852 14.4805 22.3852 16.8482 20.8077 16.8482H19.4583V15.652C19.4583 15.0077 19.991 14.4805 20.6378 14.4805H20.8077ZM13.3494 13.2566C11.9969 13.2566 10.8994 14.3418 10.8994 15.6798C10.8994 16.9869 11.9969 18.0752 13.3494 18.0752H14.6723V23.0881C14.6723 23.492 14.9828 23.6954 15.2901 23.6954C15.6003 23.6954 15.9104 23.492 15.9104 23.0881V18.0752H18.2202V30.5272C18.2202 30.9311 18.5272 31.1346 18.8377 31.1346C19.1478 31.1346 19.4583 30.9311 19.4583 30.5272V18.0752H20.8077C22.1598 18.0752 23.2281 16.9869 23.2281 15.6798C23.2281 14.3418 22.1598 13.2566 20.8077 13.2566H20.6378C19.3177 13.2566 18.2202 14.3418 18.2202 15.652V16.8482H15.9104V15.652C15.9104 14.3418 14.8129 13.2566 13.4607 13.2566H13.3494Z" fill="#156738"/>
<path fill-rule="evenodd" clip-rule="evenodd" d="M15.2151 24.9718C14.8806 24.9718 14.6016 25.2492 14.6016 25.6069V30.5087C14.6016 30.9249 14.9099 31.1315 15.2151 31.1315C15.5234 31.1315 15.8317 30.9249 15.8317 30.5087V25.6069C15.8317 25.2492 15.5523 24.9718 15.2151 24.9718Z" fill="#156738"/>
<path fill-rule="evenodd" clip-rule="evenodd" d="M14.6016 26.5133V30.5026C14.6016 30.8294 14.8627 31.1038 15.2151 31.1315V29.1369C15.2151 28.2367 15.0116 27.3303 14.6016 26.5133Z" fill="#156738"/>
<path fill-rule="evenodd" clip-rule="evenodd" d="M13.9844 36.9952V37.7721C13.9844 39.5541 15.4349 41 17.2187 41C19.0056 41 20.4558 39.5541 20.4558 37.7721V36.9952H13.9844Z" fill="#156738"/>
<path fill-rule="evenodd" clip-rule="evenodd" d="M12.1318 29.2848V33.2926H21.9972V29.2848H12.1318Z" fill="#41B06E"/>
<path fill-rule="evenodd" clip-rule="evenodd" d="M12.1348 33.2958V35.4847C12.1348 36.4928 12.8895 37.2974 13.8714 37.2974H20.2318C21.2106 37.2974 21.9974 36.4928 21.9974 35.4847V33.2958H12.1348Z" fill="#156738"/>
<path fill-rule="evenodd" clip-rule="evenodd" d="M17.0645 36.9954V37.7353C17.0645 38.8205 17.7088 39.8532 18.7601 40.3835C19.7842 39.8286 20.4252 38.8205 20.4557 37.7353V36.9954H17.0645Z" fill="#41B06E"/>
<path fill-rule="evenodd" clip-rule="evenodd" d="M15.2188 29.2848V33.2926H21.9981V29.2848H15.2188Z" fill="#29C65F"/>
<path fill-rule="evenodd" clip-rule="evenodd" d="M15.2188 33.2958V35.4847C15.2188 36.4928 16.0089 37.2974 16.9988 37.2974H20.218C21.2052 37.2974 21.9981 36.4928 21.9981 35.4847V33.2958H15.2188Z" fill="#41B06E"/>
</svg>
