<svg width="35" height="41" viewBox="0 0 35 41" fill="none" xmlns="http://www.w3.org/2000/svg">
<path fill-rule="evenodd" clip-rule="evenodd" d="M1.80683 2.66351C0.80008 2.66351 0 3.47357 0 4.49032V7.00387C0 13.051 3.05024 14.3078 5.53711 15.2979C6.89722 15.8679 8.084 16.3446 8.67404 17.5414C8.82072 17.8414 8.79406 18.1981 8.55404 18.4414C8.34069 18.6781 8.04063 18.7915 7.73061 18.7915C7.6106 18.7915 7.48727 18.7715 7.37059 18.7381C6.92723 18.5581 6.87054 18.0214 6.89721 17.6014C6.91388 17.1847 6.60387 16.9647 6.29385 16.9647C6.01049 16.9647 5.72714 17.1514 5.7138 17.5414C5.6838 18.0481 5.74378 19.3382 6.89721 19.8483C7.1639 19.9349 7.43059 19.9949 7.69728 19.9949C8.34733 19.9949 8.97073 19.7582 9.41409 19.2782C9.97414 18.6781 10.1241 17.7814 9.74078 17.0347C8.94072 15.4145 7.4306 14.8178 5.95048 14.2178C4.79705 13.7111 3.58028 13.231 2.69354 12.2143C1.69012 11.0775 1.18345 9.37072 1.18345 7.0372V4.52031C1.18345 4.16028 1.45011 3.89359 1.78013 3.89359C2.72354 3.89359 3.61365 4.37031 4.14369 5.15037L4.61703 5.83711C5.09041 6.52717 5.89381 6.94719 6.75055 6.94719H9.5341C10.3308 6.94719 10.3308 5.7471 9.5341 5.7471H6.75055C6.27718 5.7471 5.86049 5.50706 5.59713 5.15037L5.12375 4.46033C4.38369 3.35024 3.14027 2.69352 1.80683 2.66351Z" fill="#27BA65"/>
<path fill-rule="evenodd" clip-rule="evenodd" d="M32.4729 2.66687C31.0961 2.66687 29.8126 3.35359 29.0493 4.46035L28.5592 5.11372C28.2859 5.50376 27.8591 5.74044 27.3658 5.74044H24.4955C23.6688 5.74044 23.6688 6.9372 24.4955 6.9372H27.3991C28.2525 6.9372 29.0759 6.52052 29.5993 5.83379L30.0593 5.14705C30.6361 4.36699 31.5228 3.89032 32.4995 3.89032C32.8662 3.89032 33.1429 4.16031 33.1429 4.48701V6.99722C33.1429 9.35741 32.6229 11.0942 31.5828 12.1976C30.666 13.181 29.4159 13.6911 28.1925 14.1678C26.6957 14.7679 25.1056 15.3946 24.3122 17.008C23.9155 17.7581 24.0355 18.6515 24.6489 19.2482C25.1056 19.7283 25.749 19.9949 26.4224 19.9949C26.6957 19.9949 26.9691 19.9083 27.2158 19.8182C28.4059 19.3082 28.4692 18.0248 28.4359 17.5148C28.4225 17.1247 28.1258 16.938 27.8291 16.938C27.5125 16.938 27.1991 17.1481 27.2158 17.5481C27.2458 17.9648 27.1858 18.5015 26.7257 18.7115C26.6157 18.7415 26.5024 18.7582 26.3857 18.7582C26.0557 18.7582 25.7323 18.6348 25.5056 18.4115C25.2589 18.1748 25.2256 17.8148 25.379 17.5148C25.9923 16.3213 27.2158 15.8413 28.6225 15.2745C31.1894 14.2611 34.333 13.0044 34.333 6.99722V4.48701C34.333 3.47359 33.5096 2.66687 32.4729 2.66687Z" fill="#156738"/>
<path fill-rule="evenodd" clip-rule="evenodd" d="M15.668 23.3352V35.6662H18.3315V23.3352H15.668Z" fill="#156738"/>
<path fill-rule="evenodd" clip-rule="evenodd" d="M7.33398 1.33344V9.34076C7.33398 14.9746 9.99085 20.305 14.4845 23.6552L17.1681 25.6621L19.8517 23.6552C24.3454 20.305 26.9989 14.9746 26.9989 9.34076V1.33344H7.33398Z" fill="#1A8246"/>
<path fill-rule="evenodd" clip-rule="evenodd" d="M23.3052 1.33344V9.34076C23.3052 14.9746 20.6283 20.305 16.1479 23.6552L15.3379 24.262L17.2014 25.6621L19.8449 23.6552C24.3586 20.305 27.0022 14.9746 27.0022 9.34076V1.33344H23.3052Z" fill="#156738"/>
<path fill-rule="evenodd" clip-rule="evenodd" d="M6.58013 0C6.27677 0 6.00342 0.236675 6.00342 0.530032V2.09685C6.00342 2.39354 6.27677 2.66021 6.58013 2.66021H27.7919C28.0919 2.66021 28.3352 2.39354 28.3352 2.09685V0.530032C28.3352 0.236675 28.0919 0 27.7919 0H6.58013Z" fill="#27BA65"/>
<path fill-rule="evenodd" clip-rule="evenodd" d="M24.6685 0V2.66021H27.7954C28.0921 2.66021 28.3354 2.39354 28.3354 2.09685V0.530032C28.3354 0.236675 28.0921 0 27.7954 0H24.6685Z" fill="#156738"/>
<path fill-rule="evenodd" clip-rule="evenodd" d="M17.1683 7.33392C17.1316 7.33392 17.0916 7.35059 17.0649 7.37726L15.6849 10.2575C15.6582 10.2875 15.6282 10.3175 15.5982 10.3175L12.4846 10.7742C12.3979 10.8075 12.3379 10.9309 12.4246 10.9909L14.6714 13.2244C14.7014 13.2578 14.7014 13.3178 14.7014 13.3478L14.1614 16.5013C14.1614 16.6047 14.2214 16.6613 14.2947 16.6613C14.3114 16.6613 14.3247 16.6613 14.3414 16.6547L17.125 15.1545C17.1416 15.1379 17.1516 15.1312 17.1716 15.1312C17.1916 15.1312 17.2116 15.1379 17.245 15.1545L19.9985 16.6547C20.0119 16.6613 20.0285 16.6613 20.0452 16.6613C20.1219 16.6613 20.2019 16.6047 20.1752 16.5013L19.6385 13.3478C19.6385 13.3178 19.6652 13.2578 19.6985 13.2244L21.942 10.9909C22.002 10.9309 21.972 10.8075 21.852 10.7742L18.7685 10.3175C18.7084 10.3175 18.6784 10.2875 18.6517 10.2575L17.275 7.37726C17.245 7.35059 17.205 7.33392 17.1683 7.33392Z" fill="white"/>
<path fill-rule="evenodd" clip-rule="evenodd" d="M15.6752 23.9987C15.1152 23.9987 14.6685 24.482 14.6685 25.0888V25.5721C14.6685 26.1822 15.1152 26.6622 15.6752 26.6622H18.6621C19.2222 26.6622 19.6689 26.1822 19.6689 25.5721V25.0888C19.6689 24.482 19.2222 23.9987 18.6621 23.9987H15.6752Z" fill="#27BA65"/>
<path fill-rule="evenodd" clip-rule="evenodd" d="M13.375 33.6694C12.5983 33.6694 12.0049 34.2794 12.0049 35.0728V37.3297H22.3357V37.2997V35.0728C22.3357 34.2794 21.709 33.6694 20.9356 33.6694H13.375Z" fill="#27BA65"/>
<path fill-rule="evenodd" clip-rule="evenodd" d="M18.668 33.6694V37.333H22.3349V35.0862C22.3349 34.2828 21.7082 33.6694 20.9615 33.6694H18.668Z" fill="#156738"/>
<path fill-rule="evenodd" clip-rule="evenodd" d="M9.45002 36.6663C9.08666 36.6663 8.75663 36.9263 8.69662 37.273L8.08992 40.1333C7.99992 40.5966 8.36328 41 8.84332 41H25.1246C25.638 41 26.0014 40.5966 25.8814 40.1333L25.308 37.273C25.248 36.9263 24.9146 36.6663 24.5546 36.6663H9.45002Z" fill="#27BA65"/>
<path fill-rule="evenodd" clip-rule="evenodd" d="M21.6714 36.6663L22.5081 41H25.1917C25.6517 41 25.9984 40.5966 25.9417 40.1333L25.365 37.273C25.3083 36.9263 24.9883 36.6663 24.645 36.6663H21.6714Z" fill="#156738"/>
</svg>
