<svg width="38" height="41" viewBox="0 0 38 41" fill="none" xmlns="http://www.w3.org/2000/svg">
<path fill-rule="evenodd" clip-rule="evenodd" d="M33.7432 34.3798L34.5158 39.9542C34.6041 40.6493 35.1908 41 35.7837 41C36.3703 41 36.9664 40.6493 37.0705 39.9542L37.8432 34.3798H33.7432Z" fill="#156738"/>
<path fill-rule="evenodd" clip-rule="evenodd" d="M35.6357 34.3798V40.9972C36.3107 40.971 36.9162 40.5247 37.014 39.9419L37.8434 34.3798H35.6357Z" fill="#156738"/>
<path fill-rule="evenodd" clip-rule="evenodd" d="M9.03733 0L0 9.07393V40.3421C0 40.713 0.309698 41 0.652521 41H29.6178C29.9868 41 30.2738 40.713 30.2738 40.3421V0.655062C30.2738 0.28417 29.9615 0 29.5925 0H9.03733Z" fill="white"/>
<path fill-rule="evenodd" clip-rule="evenodd" d="M8.93989 0L0 9.23982V10.7199H9.7271C10.0923 10.7199 10.402 10.4307 10.402 10.0532V0H8.93989Z" fill="#29C65F"/>
<path fill-rule="evenodd" clip-rule="evenodd" d="M27.5709 0V38.2038H0V40.3421C0 40.713 0.309705 41 0.679336 41H29.5925C29.9615 41 30.2738 40.713 30.2738 40.3421V0.655062C30.2738 0.28417 29.9615 0 29.5925 0H27.5709Z" fill="#29C65F"/>
<path fill-rule="evenodd" clip-rule="evenodd" d="M8.82511 0L0 9.14615H8.1877C8.5485 9.14615 8.82511 8.8295 8.82511 8.48289V0Z" fill="#156738"/>
<path fill-rule="evenodd" clip-rule="evenodd" d="M6.44035 28.0724C5.67744 28.1292 5.67744 29.2709 6.44035 29.3277H23.5159C24.2791 29.2709 24.2791 28.1292 23.5159 28.0724H6.44035Z" fill="#156738"/>
<path fill-rule="evenodd" clip-rule="evenodd" d="M14.9586 35.6416C14.1922 35.6984 14.1922 36.8129 14.9586 36.8968H23.5118C24.2782 36.8129 24.2782 35.6984 23.5118 35.6416H14.9586Z" fill="#156738"/>
<path fill-rule="evenodd" clip-rule="evenodd" d="M6.44035 24.9153C5.67744 24.9724 5.67744 26.0898 6.44035 26.1768H23.5159C24.2791 26.0898 24.2791 24.9724 23.5159 24.9153H6.44035Z" fill="#156738"/>
<path fill-rule="evenodd" clip-rule="evenodd" d="M6.44035 21.7646C5.67744 21.8214 5.67744 22.9631 6.44035 23.023H23.5159C24.2791 22.9631 24.2791 21.8214 23.5159 21.7646H6.44035Z" fill="#156738"/>
<path fill-rule="evenodd" clip-rule="evenodd" d="M6.48749 18.6106C5.67474 18.6106 5.67474 19.8693 6.48749 19.8693C6.50547 19.8693 6.52344 19.8693 6.5411 19.8661H23.7305C23.7494 19.8693 23.7684 19.8693 23.7841 19.8693C24.5978 19.8693 24.5978 18.6106 23.7841 18.6106C23.7684 18.6106 23.7494 18.6106 23.7305 18.6106H6.5411C6.52344 18.6106 6.50547 18.6106 6.48749 18.6106Z" fill="#156738"/>
<path fill-rule="evenodd" clip-rule="evenodd" d="M13.7946 9.46429C12.9304 9.46429 12.9304 10.6934 13.7946 10.6934C13.8167 10.6934 13.8356 10.6934 13.8545 10.6902H14.4285V15.7868C14.4285 16.1227 14.7313 16.3999 15.0971 16.3999C15.4598 16.3999 15.7658 16.1227 15.7658 15.7868V10.0774C15.7658 9.74468 15.4598 9.46429 15.0971 9.46429H13.8545C13.8356 9.46429 13.8167 9.46429 13.7946 9.46429Z" fill="#156738"/>
<path fill-rule="evenodd" clip-rule="evenodd" d="M13.7169 15.457C12.9285 15.457 12.9379 16.7154 13.739 16.7154C13.7579 16.7154 13.7737 16.7153 13.7958 16.7122H16.1927C16.2085 16.7153 16.2242 16.7154 16.24 16.7154C17.019 16.7154 17.0253 15.457 16.2652 15.457C16.24 15.457 16.2148 15.457 16.1927 15.4598H13.7958C13.7642 15.457 13.739 15.457 13.7169 15.457Z" fill="#156738"/>
<path fill-rule="evenodd" clip-rule="evenodd" d="M14.8265 6.93848C14.5931 6.93848 14.3566 7.04319 14.1642 7.27594C13.5586 7.95118 14.0002 9.1427 14.8265 9.1427C15.3532 9.1427 15.7663 8.62957 15.7663 8.04894C15.7663 7.37718 15.3027 6.93848 14.8265 6.93848Z" fill="#156738"/>
<path fill-rule="evenodd" clip-rule="evenodd" d="M33.7432 9.46429V35.6355H37.8432V9.46429H33.7432Z" fill="#A9FFC7"/>
<path fill-rule="evenodd" clip-rule="evenodd" d="M35.6357 9.46429V35.6355H37.8434V9.46429H35.6357Z" fill="white"/>
<path fill-rule="evenodd" clip-rule="evenodd" d="M33.7432 5.68005V10.4077H37.8432V5.68005H33.7432Z" fill="#156738"/>
<path fill-rule="evenodd" clip-rule="evenodd" d="M35.6357 5.68005V10.4077H37.8434V5.68005H35.6357Z" fill="#156738"/>
<path fill-rule="evenodd" clip-rule="evenodd" d="M35.7932 0C34.6641 0 33.7432 0.880556 33.7432 1.95791V5.67692H37.8432V1.95791C37.8432 0.880556 36.9222 0 35.7932 0Z" fill="#156738"/>
<path fill-rule="evenodd" clip-rule="evenodd" d="M35.6357 0V5.67692H37.8434V1.95791C37.8434 0.880556 36.8531 0 35.6357 0Z" fill="#156738"/>
</svg>
