<svg width="44" height="44" viewBox="0 0 44 44" fill="none" xmlns="http://www.w3.org/2000/svg">
<path fill-rule="evenodd" clip-rule="evenodd" d="M0.244591 0.00311279C0.158112 0.00311279 0.074707 0.0834221 0.074707 0.126662V10.6863C0.074707 10.7697 0.158112 10.8099 0.244591 10.8099H32.3715C32.4147 10.8099 32.4981 10.7697 32.4981 10.6863V0.126662C32.4981 0.0834221 32.4147 0.00311279 32.3715 0.00311279H0.244591Z" fill="white"/>
<path fill-rule="evenodd" clip-rule="evenodd" d="M0.244591 25.638C0.158112 25.638 0.074707 25.7245 0.074707 25.8079V36.5405C0.074707 36.627 0.158112 36.7104 0.244591 36.7104H27.507L27.8437 36.7536H27.8869L28.1803 36.5806C28.3904 36.454 28.5602 36.3675 28.7703 36.2842L33.6501 34.3168C33.6934 34.3168 33.7335 34.2735 33.7335 34.1901V32.0498C33.7335 32.0096 33.7335 31.9633 33.6934 31.9232L33.1899 31.6637C32.3035 31.1541 31.6302 30.3418 31.3801 29.3566L31.17 28.6308C31.17 28.5443 31.0836 28.5011 31.0403 28.5011H30.2867C29.5269 28.5011 28.8938 27.8586 28.8938 27.0896C28.8938 27.0062 28.8938 26.963 28.8938 26.8765L29.0204 25.8079C29.0204 25.7245 28.9803 25.638 28.8938 25.638H0.244591Z" fill="white"/>
<path fill-rule="evenodd" clip-rule="evenodd" d="M32.4147 12.663C32.4024 12.663 32.3869 12.6661 32.3715 12.6754H0.244591C0.158112 12.6754 0.074707 12.7155 0.074707 12.802V23.652C0.074707 23.7385 0.158112 23.7786 0.244591 23.7786H28.8598C28.9432 23.7786 28.9864 23.7385 29.0297 23.652L29.0698 22.7903C29.2397 21.0237 30.2126 20.2052 31.9051 19.3034L32.458 19.0439C32.4981 19.0007 32.4981 18.9574 32.4981 18.9142V12.802C32.4981 12.734 32.4734 12.663 32.4147 12.663Z" fill="white"/>
<path fill-rule="evenodd" clip-rule="evenodd" d="M11.5241 3.40051C10.5759 3.40051 10.5759 4.94169 11.5241 4.94169C11.5519 4.94169 11.5766 4.9386 11.6044 4.9386H19.4246C19.4524 4.9386 19.4771 4.94169 19.5049 4.94169C20.4562 4.94169 20.4562 3.40051 19.5049 3.40051C19.4771 3.40051 19.4524 3.40052 19.4246 3.4036H11.6044C11.5766 3.40052 11.5519 3.40051 11.5241 3.40051Z" fill="#156738"/>
<path fill-rule="evenodd" clip-rule="evenodd" d="M11.5086 6.48602C10.5759 6.48602 10.5759 8.03029 11.5086 8.03029C11.5333 8.03029 11.5581 8.03029 11.5858 8.0272H26.9945C27.8655 7.93454 27.8655 6.53853 26.9945 6.48911H11.5858C11.5581 6.48911 11.5333 6.48602 11.5086 6.48602Z" fill="#156738"/>
<path fill-rule="evenodd" clip-rule="evenodd" d="M11.5241 16.3724C10.5759 16.3724 10.5759 17.6048 11.5241 17.6048C11.5519 17.6048 11.5766 17.6048 11.6044 17.6017H19.4246C19.4524 17.6048 19.4771 17.6048 19.5049 17.6048C20.4562 17.6048 20.4562 16.3724 19.5049 16.3724C19.4771 16.3724 19.4524 16.3724 19.4246 16.3755H11.6044C11.5766 16.3724 11.5519 16.3724 11.5241 16.3724Z" fill="#156738"/>
<path fill-rule="evenodd" clip-rule="evenodd" d="M11.4838 19.4578C10.5757 19.4578 10.5881 20.6901 11.5178 20.6901C11.5456 20.6901 11.5702 20.6901 11.598 20.6871H27.0253C27.8684 20.6129 27.8684 19.5011 27.0253 19.4671H11.598C11.561 19.4609 11.5208 19.4578 11.4838 19.4578Z" fill="#156738"/>
<path fill-rule="evenodd" clip-rule="evenodd" d="M11.5241 29.0322C10.5759 29.0322 10.5759 30.5734 11.5241 30.5734C11.5519 30.5734 11.5766 30.5734 11.6044 30.5703H19.4246C19.4524 30.5734 19.4771 30.5734 19.5049 30.5734C20.4562 30.5734 20.4562 29.0322 19.5049 29.0322C19.4771 29.0322 19.4524 29.0322 19.4246 29.0353H11.6044C11.5766 29.0322 11.5519 29.0322 11.5241 29.0322Z" fill="#156738"/>
<path fill-rule="evenodd" clip-rule="evenodd" d="M11.5147 32.4296C10.5758 32.4296 10.5758 33.6619 11.5147 33.6619C11.5425 33.6619 11.5672 33.6619 11.595 33.6589H26.8462C26.874 33.6619 26.8987 33.6619 26.9265 33.6619C27.8685 33.6619 27.8685 32.4296 26.9265 32.4296C26.8987 32.4296 26.874 32.4327 26.8462 32.4327H11.595C11.5672 32.4327 11.5425 32.4296 11.5147 32.4296Z" fill="#156738"/>
<path fill-rule="evenodd" clip-rule="evenodd" d="M6.78563 2.47083C6.74857 2.47083 6.71151 2.47392 6.67136 2.4801H3.24C2.82923 2.4801 2.54199 2.77658 2.54199 3.15956V7.92209C2.54199 8.30507 2.82923 8.6448 3.24 8.6448H8.02104C8.39167 8.6448 8.67581 8.30507 8.67581 7.92209V6.64653C8.71596 6.1153 8.3608 5.84966 7.99944 5.84966C7.64426 5.84966 7.28597 6.1153 7.32612 6.64653V7.19938H3.89168V3.88227H6.67136C6.69915 3.88536 6.72386 3.88536 6.74857 3.88536C7.6566 3.88536 7.66895 2.47083 6.78563 2.47083Z" fill="#156738"/>
<path fill-rule="evenodd" clip-rule="evenodd" d="M8.93242 2.474C8.75637 2.474 8.57108 2.54811 8.41357 2.73033L6.03847 5.28455L5.31885 4.50624C5.15825 4.32402 4.97295 4.24681 4.79382 4.24681C4.25641 4.24681 3.77769 4.93866 4.25642 5.45753L5.48565 6.84119C5.61536 7.01414 5.82536 7.10061 6.03847 7.10061C6.24849 7.10061 6.41837 7.01415 6.59133 6.88443L9.47291 3.72792C9.95164 3.17508 9.46982 2.474 8.93242 2.474Z" fill="#156738"/>
<path fill-rule="evenodd" clip-rule="evenodd" d="M3.24309 15.4458C2.82923 15.4458 2.54199 15.7824 2.54199 16.1623V20.9002C2.54199 21.28 2.82923 21.6167 3.24309 21.6167H8.0612C8.43182 21.6167 8.71905 21.28 8.71905 20.9002V19.6308C8.67582 19.186 8.34843 18.9636 8.02414 18.9636C7.69675 18.9636 7.37862 19.186 7.36009 19.6308V20.1774H3.90095V16.8851H6.69914C7.56393 16.7986 7.56393 15.5292 6.69914 15.4458H3.24309Z" fill="#156738"/>
<path fill-rule="evenodd" clip-rule="evenodd" d="M8.93222 15.4427C8.75618 15.4427 8.57089 15.52 8.41646 15.7022L6.03827 18.2564L5.31866 17.4348C5.16423 17.2619 4.982 17.194 4.80904 17.194C4.26546 17.194 3.7775 17.8703 4.25931 18.4294L5.48545 19.8161C5.61517 19.986 5.82825 20.0725 6.03827 20.0725C6.25138 20.0725 6.42126 19.986 6.59113 19.8161L9.47272 16.6967C9.95144 16.1439 9.46963 15.4427 8.93222 15.4427Z" fill="#156738"/>
<path fill-rule="evenodd" clip-rule="evenodd" d="M6.77636 28.4177C6.75474 28.4177 6.73003 28.4177 6.69914 28.4208H3.24309C2.82923 28.4208 2.54199 28.7574 2.54199 29.1373V33.872C2.54199 34.2519 2.82923 34.5885 3.24309 34.5885H8.0612C8.43182 34.5484 8.71905 34.2519 8.71905 33.8319V32.5625C8.67582 32.1394 8.34843 31.9262 8.02414 31.9262C7.69675 31.9262 7.37862 32.1394 7.36009 32.5625V33.1555H3.90095V29.8569H6.69914C6.73003 29.8569 6.75474 29.86 6.77636 29.86C7.70292 29.86 7.70292 28.4177 6.77636 28.4177Z" fill="#156738"/>
<path fill-rule="evenodd" clip-rule="evenodd" d="M8.93261 28.4146C8.75656 28.4146 8.57128 28.4887 8.41685 28.6586L6.03866 31.0584L5.31904 30.2862C5.16153 30.1133 4.97933 30.0453 4.80019 30.0453C4.26279 30.0453 3.78098 30.7001 4.2597 31.222L5.48584 32.5254C5.61555 32.6459 5.82864 32.7261 6.03866 32.7261C6.07881 32.7354 6.10972 32.7385 6.14679 32.7385C6.31048 32.7385 6.44944 32.6582 6.59152 32.5254L9.4731 29.5944C9.95183 29.0755 9.47001 28.4146 8.93261 28.4146Z" fill="#156738"/>
<path fill-rule="evenodd" clip-rule="evenodd" d="M32.2599 33.3593L27.9731 35.0919C27.5499 35.2216 27.167 35.4749 26.8272 35.7312L26.7006 35.8146L26.6573 35.9011L26.6172 35.9413L26.4875 36.0277C25.7246 36.7906 25.2582 37.7635 25.0884 38.863V39.0329V39.0761V39.246V39.3294V39.3726V39.5857V40.2652V42.3376C25.1254 42.841 25.5208 43.2395 26.0088 43.2395C26.0551 43.2395 26.1014 43.2364 26.1508 43.2271H42.866C42.9154 43.2364 42.9617 43.2395 43.008 43.2395C43.5022 43.2395 43.9253 42.841 43.9253 42.3376V40.2652V39.5857H43.7153V39.3726V39.3294V39.246V39.0761V39.0329V38.863C43.5887 37.7635 43.0791 36.7906 42.3162 36.0277L42.1896 35.9413L42.1432 35.9011L42.1031 35.8146L41.9734 35.7312C41.6367 35.4749 41.2537 35.2216 40.8306 35.0919L36.5437 33.3593L35.4844 34.4588L34.4219 35.5181L33.3224 34.4588L32.2599 33.3593Z" fill="#156738"/>
<path fill-rule="evenodd" clip-rule="evenodd" d="M32.0716 33.665L27.8094 35.2742C25.9749 35.9722 24.7827 37.745 24.8692 39.6846V42.3624C24.8692 42.8503 25.2923 43.2395 25.7926 43.2395C25.8359 43.2395 25.8884 43.2364 25.9347 43.2271H26.1478V39.6846C26.0613 37.745 27.2535 35.9722 29.0881 35.2742L32.5009 33.9955L32.0716 33.665Z" fill="#27B262"/>
<path fill-rule="evenodd" clip-rule="evenodd" d="M38.8446 25.0295L38.7952 25.0789L38.8014 25.0728L38.8446 25.0295ZM38.7612 25.0728V25.1129V25.1561L38.718 25.2395L38.7612 25.1129L38.6346 25.1963L38.7612 25.0728ZM34.1253 17.9166C30.9936 17.9166 28.4888 20.443 28.4888 23.5563V26.2495C28.4888 26.2495 29.7829 26.1229 29.9496 25.4928C29.9898 25.4063 30.033 25.3662 30.0732 25.2828C30.7866 25.2828 34.1686 25.2395 36.1298 22.883C36.5467 24.0195 37.464 24.9029 38.6346 25.2395C38.6778 25.3229 38.718 25.4063 38.7612 25.4496C38.928 26.0796 40.2221 26.2093 40.2221 26.2093V23.5563C40.1819 20.443 37.6741 17.9166 34.5824 17.9166H34.1253Z" fill="#156738"/>
<path fill-rule="evenodd" clip-rule="evenodd" d="M33.9709 17.9136C30.9658 17.9136 28.4888 20.4832 28.4888 23.5996V26.2526C28.8131 26.2094 29.1374 26.1229 29.4617 25.9994V25.0728V23.5996C29.4617 20.5666 31.7348 18.0834 34.6627 17.9136H33.9709Z" fill="#27B262"/>
<path fill-rule="evenodd" clip-rule="evenodd" d="M39.367 25.6348C38.9994 25.6348 38.6782 25.9313 38.6782 26.3205V28.3466C38.6782 28.7357 38.9994 29.0322 39.367 29.0322C39.4287 29.0322 39.4905 29.023 39.5554 29.0075C39.6727 28.9643 39.8333 28.8809 39.9507 28.8407C40.0711 28.7172 40.1916 28.5906 40.3121 28.5103C41.146 27.559 40.7506 26.0332 39.5554 25.6595C39.4905 25.6441 39.4287 25.6348 39.367 25.6348Z" fill="#FFE1B0"/>
<path fill-rule="evenodd" clip-rule="evenodd" d="M29.2917 25.638C29.2084 25.638 29.125 25.6534 29.0447 25.6812C27.2533 26.1754 27.2533 28.4949 29.0447 28.9921C29.125 29.0168 29.2083 29.0323 29.2856 29.0323C29.6871 29.0323 30.0299 28.708 30.0299 28.3312V26.3422C30.0299 26.0951 29.894 25.8882 29.718 25.7646C29.5975 25.6843 29.4462 25.638 29.2917 25.638Z" fill="#FFB53C"/>
<path fill-rule="evenodd" clip-rule="evenodd" d="M32.893 31.5062C32.51 31.5062 32.1919 31.8398 32.1919 32.2073V34.3261C32.1919 34.4928 32.2753 34.709 32.405 34.8326L33.8288 36.2317C33.9555 36.3583 34.1655 36.4448 34.3323 36.4448C34.5423 36.4448 34.7121 36.3583 34.8758 36.2317L36.346 34.6627C36.4726 34.5361 36.5127 34.3662 36.5127 34.1963V32.2073C36.5127 31.9973 36.4294 31.8707 36.3027 31.741C36.136 31.6143 35.9692 31.5309 35.7561 31.5309H35.6325C35.3793 31.5711 35.0859 31.6143 34.7925 31.6143H33.9122C33.6188 31.6143 33.3254 31.5711 33.0752 31.5309C33.0104 31.5124 32.9548 31.5062 32.893 31.5062Z" fill="#FFE1B0"/>
<path fill-rule="evenodd" clip-rule="evenodd" d="M32.8343 31.5031C32.4729 31.5031 32.1919 31.8212 32.1919 32.2382V34.3199C32.1919 34.533 32.2691 34.7028 32.3865 34.8295L33.696 36.2749C33.8134 36.4046 34.0049 36.4448 34.1593 36.4448C34.3539 36.4448 34.5083 36.3583 34.6596 36.2317C34.5083 36.1884 34.3909 36.1483 34.2767 36.0618L32.964 34.6163C32.8498 34.4897 32.7725 34.3199 32.7725 34.1068V32.0281C32.7725 31.815 32.8498 31.6452 32.964 31.5155C32.9208 31.5062 32.8744 31.5031 32.8343 31.5031Z" fill="#FFB53C"/>
<path fill-rule="evenodd" clip-rule="evenodd" d="M36.1117 22.8583C36.0623 22.8583 36.0128 22.8737 35.9696 22.9015C34.9627 23.6551 33.8293 24.1987 32.6155 24.5353C32.2387 24.6589 31.8619 24.7423 31.4851 24.8257C31.1515 24.8658 30.7716 24.9122 30.3948 24.9523C30.018 24.9955 29.7246 25.2889 29.7246 25.6657V28.5535C29.7246 30.8514 31.6086 32.7354 33.9157 32.7354H34.7929C37.1 32.7354 38.9871 30.8514 38.9871 28.5535V25.536C38.9871 25.2426 38.7771 24.9955 38.5269 24.8658C38.4404 24.8257 38.357 24.7824 38.2767 24.7824C37.4367 24.4489 36.7664 23.8219 36.3896 23.0683L36.3464 22.9849C36.2939 22.9046 36.2012 22.8583 36.1117 22.8583Z" fill="#FFE1B0"/>
<path fill-rule="evenodd" clip-rule="evenodd" d="M36.192 22.8583C36.1426 22.8583 36.0932 22.8737 36.0499 22.9015C35.0276 23.6551 33.8818 24.1987 32.6525 24.5353C32.2696 24.6589 31.8897 24.7423 31.5067 24.7824C31.167 24.8658 30.787 24.9122 30.4041 24.9523C30.0211 24.9955 29.7246 25.2889 29.7246 25.6657V28.5535C29.7246 30.8514 31.6333 32.7354 33.9682 32.7354H34.8176C32.4827 32.7354 30.6141 30.8514 30.6141 28.5535V25.6657C30.6141 25.2889 30.9137 24.9955 31.2503 24.9523C31.6333 24.9122 32.0163 24.8658 32.3962 24.8257C33.8818 24.5353 35.284 23.9887 36.5132 23.1949L36.473 23.0683L36.4298 22.9849C36.3742 22.9046 36.2846 22.8583 36.192 22.8583Z" fill="#FFB53C"/>
</svg>
