<svg width="29" height="39" viewBox="0 0 29 39" fill="none" xmlns="http://www.w3.org/2000/svg">
<path fill-rule="evenodd" clip-rule="evenodd" d="M15.576 0C13.3797 0 11.1722 0.548148 9.16561 1.66347C4.31308 4.36395 1.65983 9.82091 2.59889 15.3031L0.160312 22.4734C-0.455859 24.2116 0.776189 26.0836 2.62411 26.1892H3.69722C3.99254 26.1892 4.23214 26.4311 4.23214 26.7511V31.7268C4.23214 33.1981 5.43927 34.3997 6.91357 34.3997L10.7179 33.7574C10.7487 33.7545 10.7792 33.7518 10.8071 33.7518C11.1165 33.7518 11.362 34.002 11.362 34.319V38.1994C11.362 38.6275 11.7382 39 12.1925 39H24.3892C24.8435 39 25.2198 38.651 25.2198 38.1994V25.2797C25.2198 24.4509 25.3257 23.5943 25.5403 22.7933C25.7826 21.9895 26.131 21.2161 26.5853 20.4929C27.2572 19.45 27.7642 18.2986 28.1405 17.0971V17.0692C29.7488 11.9348 28.0598 6.34443 23.8789 2.9483C21.4793 0.998613 18.5387 0 15.576 0Z" fill="#2EC56E"/>
<path fill-rule="evenodd" clip-rule="evenodd" d="M13.4902 24.9257V25.3923C13.4902 26.4862 14.3988 27.2693 15.3939 27.2693C15.7095 27.2693 16.0356 27.1889 16.3429 27.0144H16.3673C16.9389 26.6792 17.3028 26.0627 17.3028 25.4164V24.9527V24.9257H13.4902Z" fill="white"/>
<path fill-rule="evenodd" clip-rule="evenodd" d="M15.432 6.74268C9.76943 6.74268 7.04168 13.7238 11.2689 17.549C12.0227 18.2461 12.4526 19.2385 12.4526 20.2841V24.1708C12.4526 24.4383 12.5588 24.7087 12.7459 24.9234C12.8016 24.9486 12.8268 24.9764 12.8799 25.0017L12.9608 25.0574C13.1227 25.1633 13.3098 25.2164 13.4999 25.2164H17.3641C17.579 25.2164 17.7691 25.1633 17.928 25.0574L18.009 25.0017C18.0621 24.9764 18.0899 24.9486 18.1181 24.9234C18.3331 24.7087 18.4389 24.4383 18.4389 24.1708V20.2562C18.4389 19.2107 18.8941 18.2212 19.6733 17.5241C23.4595 14.0361 21.6081 7.73804 16.5321 6.82625L16.398 6.7984C16.13 6.77318 15.8619 6.74531 15.5939 6.74531C15.5382 6.74267 15.4851 6.74268 15.432 6.74268Z" fill="white"/>
<path fill-rule="evenodd" clip-rule="evenodd" d="M8.24323 16.7167C8.15642 16.7167 8.06434 16.7363 7.96902 16.7833L6.51408 17.61C5.86507 17.9209 6.2035 18.7643 6.75192 18.7643C6.86395 18.7643 6.98421 18.7309 7.10738 18.6505L8.55938 17.8238C9.09109 17.4575 8.76937 16.7167 8.24323 16.7167Z" fill="white"/>
<path fill-rule="evenodd" clip-rule="evenodd" d="M22.3065 16.7141C21.7669 16.7141 21.412 17.5613 22.0605 17.8725L23.5113 18.7004C23.6063 18.7447 23.6987 18.7643 23.7881 18.7643C24.3137 18.7643 24.6325 18.0279 24.104 17.6836L22.6502 16.8308C22.5329 16.7501 22.4156 16.7141 22.3065 16.7141Z" fill="white"/>
<path fill-rule="evenodd" clip-rule="evenodd" d="M15.5301 2.63977C15.2192 2.63977 14.957 2.9175 14.957 3.25301V5.00269C14.984 5.37867 15.2626 5.56665 15.5436 5.56665C15.8219 5.56665 16.1032 5.37867 16.1275 5.00269V3.25301C16.1275 2.9175 15.8679 2.63977 15.5301 2.63977Z" fill="white"/>
<path fill-rule="evenodd" clip-rule="evenodd" d="M10.462 3.81287C10.0702 3.81287 9.67836 4.30997 9.98718 4.83376L10.7605 6.37286C10.8696 6.633 11.0512 6.73974 11.233 6.73974C11.6248 6.73974 12.0219 6.24235 11.7339 5.71856L10.9345 4.17975C10.823 3.91932 10.6438 3.81287 10.462 3.81287Z" fill="white"/>
<path fill-rule="evenodd" clip-rule="evenodd" d="M6.76588 7.62488C6.21921 7.62488 5.86817 8.27565 6.41484 8.59737L7.93429 9.32383C8.02931 9.36283 8.1214 9.37984 8.21056 9.37984C8.74021 9.37984 9.09126 8.73404 8.5443 8.43167L7.05095 7.68354C6.953 7.64189 6.85503 7.62488 6.76588 7.62488Z" fill="white"/>
<path fill-rule="evenodd" clip-rule="evenodd" d="M5.39968 12.6082C4.6923 12.6624 4.6923 13.7027 5.39968 13.7813H7.04818C7.36111 13.7813 7.62242 13.5211 7.62242 13.1824C7.62242 12.8683 7.36111 12.6082 7.04818 12.6082H5.39968Z" fill="white"/>
<path fill-rule="evenodd" clip-rule="evenodd" d="M23.6421 12.6108C22.8784 12.6625 22.8784 13.703 23.6421 13.7813H25.363C26.1015 13.703 26.1015 12.6625 25.363 12.6108H23.6421Z" fill="white"/>
<path fill-rule="evenodd" clip-rule="evenodd" d="M24.0398 7.62512C23.928 7.62512 23.8107 7.6615 23.6908 7.74244L22.2411 8.57358C21.7021 8.8692 21.917 9.67542 22.5344 9.67542C22.6432 9.67542 22.7493 9.64755 22.8303 9.59447L24.2799 8.76333C24.9281 8.451 24.5762 7.62512 24.0398 7.62512Z" fill="white"/>
<path fill-rule="evenodd" clip-rule="evenodd" d="M20.4564 4.10321C20.2494 4.10321 20.0561 4.20938 19.9485 4.38623L19.0983 5.79835C18.7725 6.28284 19.2004 6.74005 19.6256 6.74005C19.8215 6.74005 20.0174 6.6421 20.1332 6.40249L20.9559 4.98744C21.116 4.70179 21.036 4.3346 20.7433 4.17653C20.6494 4.12755 20.5529 4.10321 20.4564 4.10321Z" fill="white"/>
</svg>
