<svg width="300" height="295" viewBox="0 0 300 295" fill="none" xmlns="http://www.w3.org/2000/svg">
<path fill-rule="evenodd" clip-rule="evenodd" d="M115.423 72.9918C115.423 61.6216 124.668 52.4044 136.076 52.4044C147.483 52.4044 156.728 61.6216 156.728 72.9918C156.728 84.3621 147.483 93.5792 136.076 93.5792C124.668 93.5792 115.423 84.3621 115.423 72.9918Z" fill="black" fill-opacity="0.870588"/>
<path d="M127.219 115.053L127.18 115.029L122.254 112.073C112.608 105.644 104.764 96.4341 100.138 85.0432C87.7994 54.667 102.867 20.0801 134.01 8.0478L135.325 7.67348L130.819 8.23496C83.0066 17.778 47.0806 59.3146 47.0806 108.772C47.0806 165.294 93.7113 210.74 151.659 210.74C155.282 210.74 156.391 210.715 159.92 210.366L159.545 209.243L160.031 207.596C152.234 199.109 146.864 188.339 145.156 176.201C143.732 166.086 145.02 156.217 148.479 147.294L148.759 146.658L148.28 144.486L149.406 141.866C152.85 135.052 156.56 128.593 162.361 123.525L167.055 119.594L165.553 119.781C151.662 122.181 139.125 121.453 127.219 115.053Z" fill="black"/>
<path fill-rule="evenodd" clip-rule="evenodd" d="M247.977 137.749L244.259 147.987C231.181 178.816 203.491 201.981 169.849 208.846L159.86 210.366L156.924 207.396C149.243 198.849 143.953 188.002 142.271 175.776C140.868 165.589 142.137 155.65 145.544 146.662L145.82 146.023L150.32 149.671C159.703 156.56 170.895 161.279 183.249 162.977C207.957 166.373 231.468 156.883 246.957 139.662L247.977 137.749Z" fill="black"/>
<path d="M127.645 113.327L127.604 113.304L122.85 110.388C113.545 104.048 105.971 94.9635 101.506 83.7287C89.599 53.7691 104.315 19.8619 134.367 7.99449L135.355 7.60486L131.156 8.2436C85.0141 17.6558 50.3023 58.3534 50.3023 107.132C50.3023 162.879 95.641 208.071 151.565 208.071C155.057 208.071 158.512 207.895 161.918 207.55L162.184 207.509L159.308 204.601C151.783 196.23 146.601 185.608 144.953 173.636C143.578 163.66 144.821 153.927 148.159 145.125L148.43 144.499L150.405 139.962C153.728 133.241 158.321 127.205 163.919 122.205L167.355 119.422L166.075 119.715C152.673 122.082 139.132 119.639 127.645 113.327Z" fill="#29C65F"/>
<path fill-rule="evenodd" clip-rule="evenodd" d="M248.146 137.496L244.868 146.422C232.055 176.612 204.928 199.298 171.97 206.02L162.184 207.509L159.308 204.601C151.783 196.23 146.601 185.608 144.953 173.636C143.578 163.66 144.821 153.927 148.159 145.125L148.43 144.499L152.838 148.072C162.031 154.818 172.995 159.439 185.098 161.102C209.307 164.428 232.337 155.134 247.511 138.27L248.146 137.496Z" fill="#F9A419"/>
<path fill-rule="evenodd" clip-rule="evenodd" d="M150.345 0C150.345 3.82451 153.371 6.9249 157.104 6.9249C153.371 6.9249 150.345 10.0253 150.345 13.8498C150.345 10.0253 147.318 6.9249 143.586 6.9249C147.318 6.9249 150.345 3.82451 150.345 0Z" fill="#141E46"/>
<path fill-rule="evenodd" clip-rule="evenodd" d="M183.765 62.8853C183.765 63.9191 184.606 64.7569 185.643 64.7569C184.606 64.7569 183.765 65.595 183.765 66.6284C183.765 65.595 182.924 64.7569 181.887 64.7569C182.924 64.7569 183.765 63.9191 183.765 62.8853Z" fill="#141E46"/>
<path fill-rule="evenodd" clip-rule="evenodd" d="M248.164 117.292C248.164 121.116 251.274 124.217 255.111 124.217C251.274 124.217 248.164 127.317 248.164 131.142C248.164 127.317 245.055 124.217 241.217 124.217C245.055 124.217 248.164 121.116 248.164 117.292Z" fill="#141E46"/>
<path fill-rule="evenodd" clip-rule="evenodd" d="M233.52 105.183C233.52 106.217 234.443 107.055 235.585 107.055C234.443 107.055 233.52 107.893 233.52 108.926C233.52 107.893 232.596 107.055 231.454 107.055C232.596 107.055 233.52 106.217 233.52 105.183Z" fill="#141E46"/>
<path fill-rule="evenodd" clip-rule="evenodd" d="M212.679 87.9645C212.679 88.9984 213.52 89.8361 214.556 89.8361C213.52 89.8361 212.679 90.6742 212.679 91.7077C212.679 90.6742 211.838 89.8361 210.801 89.8361C211.838 89.8361 212.679 88.9984 212.679 87.9645Z" fill="#141E46"/>
<path fill-rule="evenodd" clip-rule="evenodd" d="M177.569 39.6776C177.569 40.7111 178.493 41.5492 179.634 41.5492C178.493 41.5492 177.569 42.3869 177.569 43.4208C177.569 42.3869 176.645 41.5492 175.504 41.5492C176.645 41.5492 177.569 40.7111 177.569 39.6776Z" fill="#141E46"/>
<path fill-rule="evenodd" clip-rule="evenodd" d="M207.422 30.0759C207.422 42.0664 217.174 51.7863 229.201 51.7863C217.174 51.7863 207.422 61.5062 207.422 73.4967C207.422 61.5062 197.67 51.7863 185.642 51.7863C197.67 51.7863 207.422 42.0664 207.422 30.0759Z" fill="#141E46"/>
<path fill-rule="evenodd" clip-rule="evenodd" d="M227.324 25.8279C227.324 26.9651 228.165 27.8866 229.201 27.8866C228.165 27.8866 227.324 28.8086 227.324 29.9454C227.324 28.8086 226.483 27.8866 225.446 27.8866C226.483 27.8866 227.324 26.9651 227.324 25.8279Z" fill="#141E46"/>
<path fill-rule="evenodd" clip-rule="evenodd" d="M105.284 43.7951H150.465L181.512 76.038L158.309 76.3352L158.426 75.2085L158.335 74.3285L158.016 77.505C156.139 86.6787 148.028 93.5793 138.302 93.5793C127.191 93.5793 118.183 84.5661 118.183 73.4481C118.183 65.1095 123.248 57.9548 130.473 54.8988L133.98 53.8088L132.388 53.9694C128.156 54.8356 124.375 56.9363 121.434 59.8788L120.95 60.4627L105.284 43.7951Z" fill="#29C65F"/>
<path fill-rule="evenodd" clip-rule="evenodd" d="M172.305 84.0319C172.316 82.4531 171.625 81.2062 171.02 80.4149C171.486 80.1929 171.839 79.7542 171.929 79.2066C172.057 78.4179 171.587 77.6719 170.859 77.4166L170.829 77.5956C170.802 77.7655 170.66 77.9055 170.487 77.9077C170.266 77.9107 170.104 77.7142 170.138 77.5042L170.164 77.3328C169.443 77.4009 168.831 77.9444 168.711 78.6908C168.568 79.5768 169.173 80.4104 170.059 80.5527C170.153 80.5676 170.243 80.5725 170.333 80.5717C170.555 82.6488 170.138 83.445 169.646 83.7557C168.05 84.7649 165.016 81.0879 161.231 81.959C160.123 82.2139 159.301 82.778 158.779 83.2118C158.854 83.4188 158.933 83.6307 159.015 83.8451C159.451 83.4749 160.198 82.9895 161.238 82.8573C162.624 82.6806 163.66 83.2466 163.98 83.4394C163.987 83.4446 163.987 83.4454 163.976 83.4416C163.694 83.3174 162.613 82.8843 161.46 83.3421C160.611 83.6786 159.954 84.4063 159.631 85.3158C159.819 85.7313 160.446 86.9722 160.547 87.1582C160.863 86.7184 161.362 86.447 161.452 86.3972C162.448 85.8578 163.495 86.2277 163.713 86.31V86.3119C163.349 86.3688 162.861 86.5036 162.429 86.8532C161.775 87.3821 161.588 88.1236 161.4 88.5885C161.805 88.8894 164.558 90.8146 167.78 89.7403C170.052 88.9845 172.278 86.8348 172.305 84.0319Z" fill="#106E38"/>
<path fill-rule="evenodd" clip-rule="evenodd" d="M171.261 73.9276L170.809 78.0046Z" fill="#41B06E"/>
<path fill-rule="evenodd" clip-rule="evenodd" d="M182.638 127.829C182.638 118.837 189.953 111.546 198.973 111.546C207.993 111.546 215.307 118.837 215.307 127.829C215.307 136.822 207.993 144.112 198.973 144.112C189.953 144.112 182.638 136.822 182.638 127.829Z" fill="black" fill-opacity="0.870588"/>
<path fill-rule="evenodd" clip-rule="evenodd" d="M236.524 119.781C236.524 120.608 237.279 121.279 238.214 121.279C237.279 121.279 236.524 121.949 236.524 122.776C236.524 121.949 235.769 121.279 234.834 121.279C235.769 121.279 236.524 120.608 236.524 119.781Z" fill="#141E46"/>
<path fill-rule="evenodd" clip-rule="evenodd" d="M231.454 101.44C231.454 102.37 232.126 103.124 232.956 103.124C232.126 103.124 231.454 103.879 231.454 104.809C231.454 103.879 230.782 103.124 229.952 103.124C230.782 103.124 231.454 102.37 231.454 101.44Z" fill="#141E46"/>
<path fill-rule="evenodd" clip-rule="evenodd" d="M174.753 104.809H210.141L234.458 130.021L216.288 130.254L216.374 129.373L216.307 128.685L216.055 131.169C214.587 138.342 208.229 143.738 200.614 143.738C191.91 143.738 184.854 136.69 184.854 127.996C184.854 121.476 188.823 115.881 194.482 113.491L197.231 112.639L195.984 112.765C192.668 113.442 189.706 115.085 187.4 117.385L187.025 117.842L174.753 104.809Z" fill="#F9A419"/>
<path fill-rule="evenodd" clip-rule="evenodd" d="M227.5 136.519C227.512 135.276 226.967 134.294 226.49 133.672C226.858 133.496 227.136 133.151 227.204 132.72C227.305 132.099 226.937 131.512 226.363 131.311L226.34 131.452C226.317 131.586 226.209 131.696 226.073 131.697C225.897 131.7 225.769 131.545 225.796 131.38L225.814 131.245C225.247 131.298 224.767 131.726 224.669 132.314C224.556 133.012 225.033 133.668 225.735 133.78C225.807 133.791 225.878 133.795 225.949 133.795C226.122 135.43 225.795 136.057 225.409 136.302C224.155 137.096 221.762 134.201 218.785 134.887C217.914 135.088 217.264 135.532 216.851 135.873C216.911 136.036 216.975 136.203 217.039 136.372C217.384 136.08 217.97 135.699 218.789 135.594C219.881 135.455 220.696 135.901 220.948 136.053C220.951 136.057 220.951 136.057 220.944 136.054C220.722 135.956 219.87 135.615 218.961 135.976C218.293 136.241 217.778 136.814 217.523 137.53C217.673 137.857 218.165 138.834 218.244 138.98C218.492 138.634 218.886 138.421 218.958 138.381C219.742 137.956 220.568 138.248 220.737 138.312V138.314C220.448 138.359 220.065 138.465 219.727 138.74C219.213 139.157 219.063 139.74 218.916 140.106C219.235 140.343 221.402 141.859 223.941 141.013C225.728 140.418 227.482 138.726 227.5 136.519Z" fill="#FBAF44"/>
<path fill-rule="evenodd" clip-rule="evenodd" d="M226.742 128.578L226.386 131.788Z" fill="#41B06E"/>
<path d="M8.95473 242.458C11.4743 242.458 13.6761 242.956 15.5601 243.952C17.4441 244.947 18.8969 246.35 19.9183 248.16C20.9625 249.948 21.4845 252.018 21.4845 254.372C21.4845 256.702 20.9625 258.773 19.9183 260.583C18.8969 262.393 17.4328 263.796 15.5261 264.791C13.6421 265.787 11.4516 266.285 8.95473 266.285H0V242.458H8.95473ZM8.5802 261.261C10.782 261.261 12.4958 260.662 13.7215 259.463C14.9473 258.263 15.5601 256.566 15.5601 254.372C15.5601 252.177 14.9473 250.468 13.7215 249.247C12.4958 248.025 10.782 247.414 8.5802 247.414H5.82228V261.261H8.5802Z" fill="black"/>
<path d="M36.9276 266.285L31.9566 257.29H30.5606V266.285H24.7383V242.458H34.5102C36.3942 242.458 37.9945 242.787 39.311 243.443C40.6503 244.099 41.649 245.004 42.3073 246.158C42.9655 247.289 43.2947 248.556 43.2947 249.959C43.2947 251.543 42.8407 252.957 41.9327 254.202C41.0475 255.446 39.7309 256.329 37.9831 256.849L43.499 266.285H36.9276ZM30.5606 253.184H34.1697C35.2366 253.184 36.031 252.923 36.5531 252.403C37.0979 251.883 37.3703 251.147 37.3703 250.197C37.3703 249.292 37.0979 248.579 36.5531 248.059C36.031 247.538 35.2366 247.278 34.1697 247.278H30.5606V253.184Z" fill="black"/>
<path d="M52.7718 247.108V251.928H60.5689V256.408H52.7718V261.635H61.5904V266.285H46.9496V242.458H61.5904V247.108H52.7718Z" fill="black"/>
<path d="M80.2494 262.076H71.3288L69.8987 266.285H63.8041L72.4524 242.458H79.1939L87.8422 266.285H81.6795L80.2494 262.076ZM78.7513 257.596L75.7891 248.873L72.8609 257.596H78.7513Z" fill="black"/>
<path d="M117.543 242.458V266.285H111.721V251.996L106.375 266.285H101.676L96.2966 251.962V266.285H90.4743V242.458H97.3521L104.06 258.954L110.699 242.458H117.543Z" fill="black"/>
<path d="M143.824 262.076H134.904L133.473 266.285H127.379L136.027 242.458H142.769L151.417 266.285H145.254L143.824 262.076ZM142.326 257.596L139.364 248.873L136.436 257.596H142.326Z" fill="black"/>
<path d="M153.062 254.338C153.062 251.984 153.572 249.891 154.594 248.059C155.615 246.203 157.034 244.766 158.85 243.748C160.689 242.707 162.766 242.187 165.081 242.187C167.918 242.187 170.347 242.934 172.367 244.427C174.387 245.92 175.738 247.957 176.419 250.536H170.018C169.541 249.541 168.86 248.783 167.975 248.262C167.112 247.742 166.125 247.482 165.013 247.482C163.219 247.482 161.767 248.104 160.654 249.348C159.542 250.593 158.986 252.256 158.986 254.338C158.986 256.419 159.542 258.082 160.654 259.327C161.767 260.571 163.219 261.194 165.013 261.194C166.125 261.194 167.112 260.933 167.975 260.413C168.86 259.893 169.541 259.135 170.018 258.139H176.419C175.738 260.718 174.387 262.755 172.367 264.248C170.347 265.719 167.918 266.454 165.081 266.454C162.766 266.454 160.689 265.945 158.85 264.927C157.034 263.886 155.615 262.449 154.594 260.617C153.572 258.784 153.062 256.691 153.062 254.338Z" fill="black"/>
<path d="M194.864 262.076H185.943L184.513 266.285H178.418L187.066 242.458H193.808L202.456 266.285H196.294L194.864 262.076ZM193.365 257.596L190.403 248.873L187.475 257.596H193.365Z" fill="black"/>
<path d="M214.043 242.458C216.563 242.458 218.765 242.956 220.649 243.952C222.533 244.947 223.985 246.35 225.007 248.16C226.051 249.948 226.573 252.018 226.573 254.372C226.573 256.702 226.051 258.773 225.007 260.583C223.985 262.393 222.521 263.796 220.615 264.791C218.731 265.787 216.54 266.285 214.043 266.285H205.088V242.458H214.043ZM213.669 261.261C215.87 261.261 217.584 260.662 218.81 259.463C220.036 258.263 220.649 256.566 220.649 254.372C220.649 252.177 220.036 250.468 218.81 249.247C217.584 248.025 215.87 247.414 213.669 247.414H210.911V261.261H213.669Z" fill="black"/>
<path d="M235.649 247.108V251.928H243.446V256.408H235.649V261.635H244.468V266.285H229.827V242.458H244.468V247.108H235.649Z" fill="black"/>
<path d="M275.316 242.458V266.285H269.494V251.996L264.148 266.285H259.449L254.07 251.962V266.285H248.247V242.458H255.125L261.833 258.954L268.472 242.458H275.316Z" fill="black"/>
<path d="M300 242.458L291.726 258.41V266.285H285.904V258.41L277.63 242.458H284.236L288.866 252.437L293.463 242.458H300Z" fill="black"/>
<path d="M24.8762 281.472L23.538 284.854H26.1579L25.8751 286.357H22.9537L21.4835 290.115H19.8437L21.3139 286.357H17.3557L15.8856 290.115H14.2458L15.7159 286.357H12.7756L13.0395 284.854H16.3002L17.6385 281.472H14.6981L14.9809 279.969H18.2228L19.6929 276.212H21.3327L19.8625 279.969H23.8207L25.2908 276.212H26.9306L25.4605 279.969H28.0804L27.8165 281.472H24.8762ZM23.2364 281.472H19.2783L17.94 284.854H21.8982L23.2364 281.472Z" fill="black"/>
<path d="M39.3487 280.345C39.2104 281.122 38.8837 281.767 38.3686 282.28C37.8659 282.781 37.2502 283.144 36.5214 283.37C37.1371 283.47 37.6398 283.771 38.0293 284.272C38.4188 284.76 38.6136 285.343 38.6136 286.019C38.6136 286.22 38.5947 286.414 38.557 286.602C38.444 287.265 38.1675 287.867 37.7277 288.405C37.3005 288.931 36.735 289.351 36.0314 289.664C35.3277 289.965 34.5361 290.115 33.6565 290.115H28.756L31.0931 277.019H35.8052C36.9864 277.019 37.8785 277.27 38.4817 277.771C39.0974 278.272 39.4052 278.923 39.4052 279.725C39.4052 279.925 39.3864 280.132 39.3487 280.345ZM37.5769 280.552C37.6021 280.439 37.6146 280.282 37.6146 280.082C37.6146 279.543 37.4261 279.124 37.0492 278.823C36.6722 278.522 36.1256 278.372 35.4094 278.372H32.5633L31.7905 282.712H34.6743C35.4659 282.712 36.1193 282.524 36.6345 282.149C37.1497 281.76 37.4638 281.228 37.5769 280.552ZM36.8607 286.432C36.8984 286.257 36.9172 286.094 36.9172 285.944C36.9172 285.368 36.7036 284.911 36.2764 284.572C35.8492 284.234 35.2649 284.065 34.5235 284.065H31.5455L30.7162 288.762H33.7507C34.5926 288.762 35.29 288.556 35.8429 288.142C36.3958 287.729 36.735 287.159 36.8607 286.432Z" fill="black"/>
<path d="M46.6294 279.65C47.4964 279.65 48.244 279.819 48.8723 280.157C49.5132 280.483 49.9969 280.946 50.3236 281.547C50.6629 282.136 50.8325 282.813 50.8325 283.577C50.8325 283.84 50.8011 284.159 50.7383 284.535C50.688 284.86 50.6064 285.199 50.4933 285.549H42.2378C42.2126 285.8 42.2001 285.982 42.2001 286.094C42.2001 286.959 42.4576 287.635 42.9728 288.123C43.5006 288.599 44.1854 288.837 45.0273 288.837C45.7686 288.837 46.4158 288.668 46.9687 288.33C47.5341 287.979 47.9613 287.516 48.2503 286.94H50.0975C49.6451 287.929 48.9477 288.737 48.0053 289.363C47.0755 289.977 45.9948 290.284 44.7634 290.284C43.4692 290.284 42.4262 289.915 41.6346 289.176C40.8555 288.424 40.466 287.403 40.466 286.113C40.466 285.75 40.5037 285.362 40.5791 284.948C40.7676 283.883 41.1508 282.95 41.7288 282.149C42.3069 281.347 43.0168 280.733 43.8587 280.307C44.7131 279.869 45.6367 279.65 46.6294 279.65ZM49.0043 284.309C49.042 284.059 49.0608 283.827 49.0608 283.614C49.0608 282.813 48.8032 282.193 48.288 281.754C47.7854 281.316 47.1257 281.097 46.309 281.097C45.4294 281.097 44.6315 281.385 43.9152 281.961C43.199 282.524 42.7152 283.307 42.4639 284.309H49.0043Z" fill="black"/>
<path d="M55.2075 281.773C55.6222 281.097 56.1437 280.57 56.7719 280.195C57.4002 279.819 58.1164 279.631 58.9206 279.631L58.6002 281.397H58.1479C57.2557 281.397 56.5081 281.635 55.9049 282.111C55.3143 282.587 54.9185 283.389 54.7175 284.516L53.7185 290.115H52.0033L53.8316 279.819H55.5468L55.2075 281.773Z" fill="black"/>
<path d="M62.2388 281.717C62.6912 281.128 63.288 280.639 64.0294 280.251C64.7708 279.85 65.5812 279.65 66.4608 279.65C67.265 279.65 67.975 279.819 68.5907 280.157C69.2189 280.483 69.7027 280.959 70.042 281.585C70.3812 282.199 70.5509 282.925 70.5509 283.764C70.5509 284.128 70.5132 284.516 70.4378 284.929C70.2493 285.969 69.8661 286.896 69.288 287.71C68.7226 288.524 68.0252 289.157 67.1959 289.608C66.3791 290.059 65.5121 290.284 64.5948 290.284C63.7153 290.284 62.9739 290.09 62.3707 289.702C61.7802 289.301 61.3529 288.806 61.0891 288.217L59.9016 295H58.1864L60.8629 279.819H62.5781L62.2388 281.717ZM68.6849 284.929C68.7352 284.666 68.7603 284.378 68.7603 284.065C68.7603 283.151 68.4901 282.437 67.9498 281.923C67.4095 281.397 66.7121 281.134 65.8577 281.134C65.2294 281.134 64.62 281.291 64.0294 281.604C63.4388 281.904 62.9299 282.349 62.5027 282.938C62.088 283.514 61.8116 284.184 61.6734 284.948C61.6231 285.211 61.598 285.499 61.598 285.812C61.598 286.727 61.8681 287.453 62.4084 287.992C62.9613 288.518 63.6587 288.781 64.5006 288.781C65.1414 288.781 65.7509 288.631 66.3289 288.33C66.9195 288.017 67.4221 287.572 67.8367 286.996C68.264 286.407 68.5467 285.718 68.6849 284.929Z" fill="black"/>
<path d="M74.9761 281.773C75.3908 281.097 75.9122 280.57 76.5405 280.195C77.1688 279.819 77.885 279.631 78.6892 279.631L78.3688 281.397H77.9164C77.0243 281.397 76.2766 281.635 75.6735 282.111C75.0829 282.587 74.6871 283.389 74.486 284.516L73.4871 290.115H71.7719L73.6002 279.819H75.3154L74.9761 281.773Z" fill="black"/>
<path d="M83.3456 290.284C82.4786 290.284 81.7121 290.109 81.0461 289.758C80.3927 289.395 79.8838 288.894 79.5194 288.255C79.155 287.604 78.9728 286.852 78.9728 286C78.9728 284.835 79.2429 283.771 79.7833 282.806C80.3236 281.829 81.065 281.059 82.0074 280.495C82.9623 279.932 84.0241 279.65 85.1927 279.65C86.0597 279.65 86.8262 279.831 87.4922 280.195C88.1707 280.545 88.6922 281.046 89.0566 281.698C89.4336 282.337 89.622 283.088 89.622 283.952C89.622 285.117 89.3456 286.182 88.7927 287.146C88.2398 288.111 87.4859 288.875 86.5309 289.439C85.576 290.002 84.5142 290.284 83.3456 290.284ZM83.5529 288.837C84.3697 288.837 85.1048 288.618 85.7582 288.18C86.4116 287.729 86.9205 287.14 87.2849 286.414C87.6618 285.675 87.8503 284.886 87.8503 284.046C87.8503 283.094 87.5739 282.368 87.021 281.867C86.4681 281.353 85.777 281.097 84.9477 281.097C84.1309 281.097 83.4021 281.322 82.7613 281.773C82.1204 282.211 81.6241 282.8 81.2723 283.539C80.9204 284.278 80.7445 285.073 80.7445 285.925C80.7445 286.852 81.0084 287.572 81.5361 288.086C82.0639 288.587 82.7362 288.837 83.5529 288.837Z" fill="black"/>
<path d="M94.4971 290.284C93.4165 290.284 92.5306 290.027 91.8395 289.514C91.1484 289 90.8029 288.311 90.8029 287.447C90.8029 287.284 90.8091 287.165 90.8217 287.09H92.4992C92.4489 287.629 92.606 288.067 92.9704 288.405C93.3474 288.743 93.8877 288.913 94.5913 288.913C95.295 288.913 95.8605 288.781 96.2877 288.518C96.7275 288.242 96.9474 287.86 96.9474 287.372C96.9474 286.959 96.7715 286.633 96.4196 286.395C96.0678 286.157 95.5275 285.9 94.7987 285.625C94.1578 285.387 93.6301 285.161 93.2154 284.948C92.8008 284.735 92.4489 284.441 92.1599 284.065C91.8709 283.677 91.7264 283.188 91.7264 282.6C91.7264 282.023 91.8898 281.51 92.2165 281.059C92.5557 280.608 93.0207 280.264 93.6112 280.026C94.2144 279.775 94.8992 279.65 95.6657 279.65C96.7212 279.65 97.5882 279.913 98.2668 280.439C98.9453 280.965 99.2846 281.654 99.2846 282.506C99.2846 282.669 99.2783 282.794 99.2657 282.881H97.6259L97.6448 282.656C97.6448 282.155 97.45 281.76 97.0605 281.472C96.6835 281.172 96.1809 281.021 95.5526 281.021C94.9369 281.021 94.428 281.159 94.0259 281.435C93.6364 281.71 93.4416 282.08 93.4416 282.543C93.4416 282.982 93.6238 283.326 93.9882 283.577C94.3526 283.827 94.9181 284.103 95.6845 284.403C96.3254 284.654 96.8406 284.886 97.2301 285.098C97.6196 285.299 97.9526 285.581 98.2291 285.944C98.5055 286.307 98.6437 286.764 98.6437 287.316C98.6437 287.917 98.4615 288.443 98.0971 288.894C97.7453 289.345 97.2552 289.689 96.627 289.927C95.9987 290.165 95.2887 290.284 94.4971 290.284Z" fill="black"/>
<path d="M107.021 279.65C107.888 279.65 108.636 279.819 109.264 280.157C109.905 280.483 110.389 280.946 110.715 281.547C111.055 282.136 111.224 282.813 111.224 283.577C111.224 283.84 111.193 284.159 111.13 284.535C111.08 284.86 110.998 285.199 110.885 285.549H102.629C102.604 285.8 102.592 285.982 102.592 286.094C102.592 286.959 102.849 287.635 103.364 288.123C103.892 288.599 104.577 288.837 105.419 288.837C106.16 288.837 106.807 288.668 107.36 288.33C107.926 287.979 108.353 287.516 108.642 286.94H110.489C110.037 287.929 109.339 288.737 108.397 289.363C107.467 289.977 106.386 290.284 105.155 290.284C103.861 290.284 102.818 289.915 102.026 289.176C101.247 288.424 100.858 287.403 100.858 286.113C100.858 285.75 100.895 285.362 100.971 284.948C101.159 283.883 101.542 282.95 102.12 282.149C102.698 281.347 103.408 280.733 104.25 280.307C105.105 279.869 106.028 279.65 107.021 279.65ZM109.396 284.309C109.434 284.059 109.452 283.827 109.452 283.614C109.452 282.813 109.195 282.193 108.68 281.754C108.177 281.316 107.517 281.097 106.701 281.097C105.821 281.097 105.023 281.385 104.307 281.961C103.591 282.524 103.107 283.307 102.856 284.309H109.396Z" fill="black"/>
<path d="M116.033 290.284C114.952 290.284 114.066 290.027 113.375 289.514C112.684 289 112.338 288.311 112.338 287.447C112.338 287.284 112.345 287.165 112.357 287.09H114.035C113.985 287.629 114.142 288.067 114.506 288.405C114.883 288.743 115.423 288.913 116.127 288.913C116.831 288.913 117.396 288.781 117.823 288.518C118.263 288.242 118.483 287.86 118.483 287.372C118.483 286.959 118.307 286.633 117.955 286.395C117.603 286.157 117.063 285.9 116.334 285.625C115.693 285.387 115.166 285.161 114.751 284.948C114.336 284.735 113.985 284.441 113.696 284.065C113.406 283.677 113.262 283.188 113.262 282.6C113.262 282.023 113.425 281.51 113.752 281.059C114.091 280.608 114.556 280.264 115.147 280.026C115.75 279.775 116.435 279.65 117.201 279.65C118.257 279.65 119.124 279.913 119.802 280.439C120.481 280.965 120.82 281.654 120.82 282.506C120.82 282.669 120.814 282.794 120.801 282.881H119.161L119.18 282.656C119.18 282.155 118.986 281.76 118.596 281.472C118.219 281.172 117.716 281.021 117.088 281.021C116.472 281.021 115.964 281.159 115.561 281.435C115.172 281.71 114.977 282.08 114.977 282.543C114.977 282.982 115.159 283.326 115.524 283.577C115.888 283.827 116.454 284.103 117.22 284.403C117.861 284.654 118.376 284.886 118.766 285.098C119.155 285.299 119.488 285.581 119.765 285.944C120.041 286.307 120.179 286.764 120.179 287.316C120.179 287.917 119.997 288.443 119.633 288.894C119.281 289.345 118.791 289.689 118.163 289.927C117.534 290.165 116.824 290.284 116.033 290.284Z" fill="black"/>
<path d="M133.174 285.982C132.835 286.445 132.508 286.84 132.194 287.165L134.626 290.115H132.402L130.988 288.386C130.234 289.05 129.461 289.545 128.67 289.871C127.891 290.184 127.049 290.34 126.144 290.34C124.913 290.34 123.939 290.046 123.223 289.457C122.506 288.856 122.148 288.036 122.148 286.996C122.148 285.944 122.5 285.011 123.204 284.197C123.907 283.37 124.85 282.731 126.031 282.28C125.78 281.917 125.591 281.579 125.465 281.266C125.352 280.952 125.296 280.633 125.296 280.307C125.296 279.618 125.465 279.005 125.805 278.466C126.144 277.928 126.615 277.508 127.218 277.207C127.822 276.907 128.513 276.756 129.292 276.756C130.171 276.756 130.869 276.982 131.384 277.433C131.899 277.884 132.157 278.46 132.157 279.161C132.157 279.274 132.144 279.443 132.119 279.669H130.404C130.416 279.606 130.423 279.512 130.423 279.387C130.423 279.011 130.291 278.717 130.027 278.504C129.775 278.278 129.442 278.165 129.028 278.165C128.462 278.165 127.991 278.347 127.614 278.71C127.237 279.074 127.049 279.512 127.049 280.026C127.049 280.326 127.124 280.633 127.275 280.946C127.426 281.247 127.664 281.616 127.991 282.055L131.233 285.982L131.667 285.437L133.344 283.314H135.191L133.174 285.982ZM126.389 288.875C127.055 288.875 127.683 288.743 128.274 288.48C128.864 288.217 129.461 287.804 130.064 287.24L126.898 283.389C125.968 283.727 125.233 284.184 124.693 284.76C124.165 285.324 123.901 285.988 123.901 286.752C123.901 287.378 124.127 287.892 124.58 288.293C125.032 288.681 125.635 288.875 126.389 288.875Z" fill="black"/>
<path d="M142.938 277.019C144.245 277.019 145.231 277.301 145.897 277.865C146.563 278.429 146.896 279.18 146.896 280.12C146.896 280.27 146.871 280.52 146.821 280.871C146.657 281.773 146.255 282.568 145.614 283.257C144.973 283.946 144.113 284.403 143.032 284.629L145.35 290.115H143.296L141.11 284.76H139.055L138.094 290.115H136.379L138.716 277.019H142.938ZM145.049 280.871C145.086 280.646 145.105 280.439 145.105 280.251C145.105 279.65 144.904 279.186 144.502 278.861C144.113 278.535 143.51 278.372 142.693 278.372H140.186L139.3 283.389H141.826C142.756 283.389 143.491 283.163 144.031 282.712C144.571 282.249 144.911 281.635 145.049 280.871Z" fill="black"/>
<path d="M148.11 284.929C148.298 283.877 148.675 282.957 149.241 282.167C149.819 281.366 150.516 280.746 151.333 280.307C152.162 279.869 153.042 279.65 153.972 279.65C154.876 279.65 155.624 279.844 156.214 280.232C156.805 280.621 157.213 281.109 157.44 281.698L157.779 279.819H159.513L157.685 290.115H155.951L156.309 288.199C155.856 288.8 155.259 289.301 154.518 289.702C153.777 290.09 152.96 290.284 152.068 290.284C151.264 290.284 150.554 290.115 149.938 289.777C149.322 289.426 148.845 288.931 148.506 288.293C148.166 287.654 147.997 286.915 147.997 286.075C147.997 285.7 148.034 285.318 148.11 284.929ZM156.874 284.948C156.924 284.685 156.95 284.403 156.95 284.103C156.95 283.188 156.673 282.468 156.12 281.942C155.58 281.403 154.889 281.134 154.047 281.134C153.406 281.134 152.79 281.284 152.2 281.585C151.622 281.886 151.125 282.324 150.711 282.9C150.296 283.476 150.02 284.153 149.881 284.929C149.831 285.192 149.806 285.48 149.806 285.794C149.806 286.721 150.076 287.453 150.617 287.992C151.157 288.518 151.848 288.781 152.69 288.781C153.331 288.781 153.94 288.631 154.518 288.33C155.109 288.017 155.611 287.572 156.026 286.996C156.453 286.407 156.736 285.725 156.874 284.948Z" fill="black"/>
<path d="M163.58 278.147C163.304 278.147 163.071 278.059 162.883 277.884C162.707 277.696 162.619 277.464 162.619 277.189C162.619 276.813 162.757 276.493 163.033 276.23C163.31 275.955 163.63 275.817 163.995 275.817C164.284 275.817 164.516 275.905 164.692 276.08C164.868 276.255 164.956 276.487 164.956 276.775C164.956 277.151 164.818 277.477 164.541 277.752C164.265 278.015 163.944 278.147 163.58 278.147ZM164.127 279.819L162.298 290.115H160.583L162.411 279.819H164.127Z" fill="black"/>
<path d="M172.214 279.631C173.245 279.631 174.074 279.919 174.702 280.495C175.33 281.059 175.645 281.879 175.645 282.957C175.645 283.357 175.613 283.721 175.55 284.046L174.476 290.115H172.78L173.816 284.291C173.867 284.028 173.892 283.752 173.892 283.464C173.892 282.7 173.678 282.117 173.251 281.717C172.836 281.316 172.252 281.115 171.498 281.115C170.593 281.115 169.821 281.397 169.18 281.961C168.551 282.524 168.143 283.345 167.955 284.422V284.385L166.937 290.115H165.222L167.691 276.212H169.406L168.501 281.303C168.928 280.777 169.469 280.37 170.122 280.082C170.788 279.781 171.485 279.631 172.214 279.631Z" fill="black"/>
<path d="M187.87 280.345C187.732 281.122 187.406 281.767 186.89 282.28C186.388 282.781 185.772 283.144 185.043 283.37C185.659 283.47 186.162 283.771 186.551 284.272C186.941 284.76 187.135 285.343 187.135 286.019C187.135 286.22 187.117 286.414 187.079 286.602C186.966 287.265 186.689 287.867 186.25 288.405C185.822 288.931 185.257 289.351 184.553 289.664C183.85 289.965 183.058 290.115 182.178 290.115H177.278L179.615 277.019H184.327C185.508 277.019 186.4 277.27 187.003 277.771C187.619 278.272 187.927 278.923 187.927 279.725C187.927 279.925 187.908 280.132 187.87 280.345ZM186.099 280.552C186.124 280.439 186.136 280.282 186.136 280.082C186.136 279.543 185.948 279.124 185.571 278.823C185.194 278.522 184.647 278.372 183.931 278.372H181.085L180.312 282.712H183.196C183.988 282.712 184.641 282.524 185.156 282.149C185.672 281.76 185.986 281.228 186.099 280.552ZM185.383 286.432C185.42 286.257 185.439 286.094 185.439 285.944C185.439 285.368 185.225 284.911 184.798 284.572C184.371 284.234 183.787 284.065 183.045 284.065H180.067L179.238 288.762H182.273C183.114 288.762 183.812 288.556 184.365 288.142C184.918 287.729 185.257 287.159 185.383 286.432Z" fill="black"/>
<path d="M195.151 279.65C196.018 279.65 196.766 279.819 197.394 280.157C198.035 280.483 198.519 280.946 198.845 281.547C199.185 282.136 199.354 282.813 199.354 283.577C199.354 283.84 199.323 284.159 199.26 284.535C199.21 284.86 199.128 285.199 199.015 285.549H190.76C190.734 285.8 190.722 285.982 190.722 286.094C190.722 286.959 190.979 287.635 191.495 288.123C192.022 288.599 192.707 288.837 193.549 288.837C194.29 288.837 194.938 288.668 195.49 288.33C196.056 287.979 196.483 287.516 196.772 286.94H198.619C198.167 287.929 197.47 288.737 196.527 289.363C195.597 289.977 194.517 290.284 193.285 290.284C191.991 290.284 190.948 289.915 190.156 289.176C189.377 288.424 188.988 287.403 188.988 286.113C188.988 285.75 189.026 285.362 189.101 284.948C189.289 283.883 189.673 282.95 190.251 282.149C190.829 281.347 191.539 280.733 192.381 280.307C193.235 279.869 194.159 279.65 195.151 279.65ZM197.526 284.309C197.564 284.059 197.583 283.827 197.583 283.614C197.583 282.813 197.325 282.193 196.81 281.754C196.307 281.316 195.648 281.097 194.831 281.097C193.951 281.097 193.153 281.385 192.437 281.961C191.721 282.524 191.237 283.307 190.986 284.309H197.526Z" fill="black"/>
<path d="M203.729 281.773C204.144 281.097 204.665 280.57 205.294 280.195C205.922 279.819 206.638 279.631 207.442 279.631L207.122 281.397H206.67C205.778 281.397 205.03 281.635 204.427 282.111C203.836 282.587 203.44 283.389 203.239 284.516L202.24 290.115H200.525L202.353 279.819H204.069L203.729 281.773Z" fill="black"/>
<path d="M211.194 290.284C210.113 290.284 209.228 290.027 208.537 289.514C207.845 289 207.5 288.311 207.5 287.447C207.5 287.284 207.506 287.165 207.519 287.09H209.196C209.146 287.629 209.303 288.067 209.667 288.405C210.044 288.743 210.585 288.913 211.288 288.913C211.992 288.913 212.557 288.781 212.985 288.518C213.425 288.242 213.644 287.86 213.644 287.372C213.644 286.959 213.468 286.633 213.117 286.395C212.765 286.157 212.224 285.9 211.496 285.625C210.855 285.387 210.327 285.161 209.912 284.948C209.498 284.735 209.146 284.441 208.857 284.065C208.568 283.677 208.423 283.188 208.423 282.6C208.423 282.023 208.587 281.51 208.913 281.059C209.253 280.608 209.718 280.264 210.308 280.026C210.911 279.775 211.596 279.65 212.363 279.65C213.418 279.65 214.285 279.913 214.964 280.439C215.642 280.965 215.982 281.654 215.982 282.506C215.982 282.669 215.975 282.794 215.963 282.881H214.323L214.342 282.656C214.342 282.155 214.147 281.76 213.757 281.472C213.381 281.172 212.878 281.021 212.25 281.021C211.634 281.021 211.125 281.159 210.723 281.435C210.333 281.71 210.139 282.08 210.139 282.543C210.139 282.982 210.321 283.326 210.685 283.577C211.05 283.827 211.615 284.103 212.382 284.403C213.022 284.654 213.538 284.886 213.927 285.098C214.317 285.299 214.65 285.581 214.926 285.944C215.203 286.307 215.341 286.764 215.341 287.316C215.341 287.917 215.159 288.443 214.794 288.894C214.442 289.345 213.952 289.689 213.324 289.927C212.696 290.165 211.986 290.284 211.194 290.284Z" fill="black"/>
<path d="M217.668 284.929C217.856 283.877 218.233 282.957 218.799 282.167C219.377 281.366 220.074 280.746 220.891 280.307C221.72 279.869 222.6 279.65 223.53 279.65C224.434 279.65 225.182 279.844 225.772 280.232C226.363 280.621 226.771 281.109 226.998 281.698L227.337 279.819H229.071L227.243 290.115H225.509L225.867 288.199C225.414 288.8 224.818 289.301 224.076 289.702C223.335 290.09 222.518 290.284 221.626 290.284C220.822 290.284 220.112 290.115 219.496 289.777C218.88 289.426 218.403 288.931 218.064 288.293C217.724 287.654 217.555 286.915 217.555 286.075C217.555 285.7 217.592 285.318 217.668 284.929ZM226.432 284.948C226.482 284.685 226.508 284.403 226.508 284.103C226.508 283.188 226.231 282.468 225.678 281.942C225.138 281.403 224.447 281.134 223.605 281.134C222.964 281.134 222.348 281.284 221.758 281.585C221.18 281.886 220.683 282.324 220.269 282.9C219.854 283.476 219.578 284.153 219.439 284.929C219.389 285.192 219.364 285.48 219.364 285.794C219.364 286.721 219.634 287.453 220.175 287.992C220.715 288.518 221.406 288.781 222.248 288.781C222.889 288.781 223.498 288.631 224.076 288.33C224.667 288.017 225.169 287.572 225.584 286.996C226.011 286.407 226.294 285.725 226.432 284.948Z" fill="black"/>
<path d="M244.428 279.631C245.484 279.631 246.326 279.919 246.954 280.495C247.595 281.059 247.915 281.886 247.915 282.975C247.915 283.376 247.884 283.733 247.821 284.046L246.746 290.115H245.05L246.087 284.291C246.137 284.028 246.162 283.746 246.162 283.445C246.162 282.681 245.955 282.105 245.54 281.717C245.138 281.316 244.566 281.115 243.825 281.115C242.971 281.115 242.235 281.378 241.62 281.904C241.017 282.418 240.602 283.163 240.376 284.14L239.301 290.115H237.605L238.642 284.291C238.692 284.002 238.717 283.714 238.717 283.426C238.717 282.675 238.51 282.105 238.095 281.717C237.693 281.316 237.121 281.115 236.38 281.115C235.488 281.115 234.728 281.403 234.099 281.98C233.471 282.543 233.063 283.364 232.874 284.441V284.403L231.856 290.115H230.141L231.969 279.819H233.685L233.421 281.303C233.848 280.765 234.376 280.351 235.004 280.063C235.632 279.775 236.292 279.631 236.983 279.631C237.85 279.631 238.579 279.825 239.169 280.213C239.773 280.602 240.168 281.172 240.357 281.923C240.784 281.197 241.362 280.633 242.091 280.232C242.832 279.831 243.611 279.631 244.428 279.631Z" fill="black"/>
<path d="M249.824 284.929C250.012 283.877 250.389 282.957 250.955 282.167C251.533 281.366 252.23 280.746 253.047 280.307C253.876 279.869 254.756 279.65 255.686 279.65C256.59 279.65 257.338 279.844 257.929 280.232C258.519 280.621 258.928 281.109 259.154 281.698L259.493 279.819H261.227L259.399 290.115H257.665L258.023 288.199C257.571 288.8 256.974 289.301 256.232 289.702C255.491 290.09 254.674 290.284 253.782 290.284C252.978 290.284 252.268 290.115 251.652 289.777C251.036 289.426 250.559 288.931 250.22 288.293C249.88 287.654 249.711 286.915 249.711 286.075C249.711 285.7 249.748 285.318 249.824 284.929ZM258.588 284.948C258.639 284.685 258.664 284.403 258.664 284.103C258.664 283.188 258.387 282.468 257.834 281.942C257.294 281.403 256.603 281.134 255.761 281.134C255.12 281.134 254.505 281.284 253.914 281.585C253.336 281.886 252.84 282.324 252.425 282.9C252.01 283.476 251.734 284.153 251.596 284.929C251.545 285.192 251.52 285.48 251.52 285.794C251.52 286.721 251.79 287.453 252.331 287.992C252.871 288.518 253.562 288.781 254.404 288.781C255.045 288.781 255.654 288.631 256.232 288.33C256.823 288.017 257.325 287.572 257.74 286.996C258.167 286.407 258.45 285.725 258.588 284.948Z" fill="black"/>
</svg>
