<svg width="907" height="1183" viewBox="0 0 907 1183" fill="none" xmlns="http://www.w3.org/2000/svg">
<path d="M18.5198 1087.68H18.8261L21.6711 1073.02L18.5198 1087.68ZM32.0658 1018.44H32.3065L34.4949 1007.5L32.0658 1018.44ZM36.5739 995.357H36.7927L38.6966 985.553L36.5739 995.357ZM27.5577 1041.51H27.8204L30.1838 1029.3L27.5577 1041.51ZM23.0278 1064.68H23.3123L25.9383 1051.27L23.0278 1064.68ZM0.509429 1179.99H0.925226L4.73298 1160.3L0.509429 1179.99ZM4.88618 1156.92H5.28007L8.84714 1138.56L4.88618 1156.92ZM9.39423 1133.84H9.76628L13.0926 1116.68L9.39423 1133.84ZM13.9242 1110.75H14.2524L17.36 1094.82L13.9242 1110.75ZM821.698 507.087C823.317 499.442 824.776 491.783 826.074 484.109C827.716 476.406 829.204 468.681 830.626 460.912C832.049 453.143 833.734 445.593 835.134 437.846C836.535 430.1 838.242 422.528 839.642 414.781C841.043 407.034 842.772 399.462 844.172 391.694C845.573 383.925 847.28 376.375 848.68 368.606C850.081 360.837 851.788 353.288 853.188 345.519C854.589 337.75 856.318 330.2 857.718 322.453C859.119 314.706 860.804 307.135 862.095 299.454C863.386 291.772 865.224 284.135 866.625 276.3C868.026 268.466 869.754 260.982 871.155 253.213C872.555 245.444 874.262 237.894 875.663 230.104C877.063 222.313 878.77 214.785 880.171 207.038C881.572 199.292 883.3 191.72 884.701 183.973C886.101 176.226 887.808 168.654 889.209 160.886C900.341 108.122 906.3 54.3982 907 0.477539H904.681C904.331 27.6134 902.668 54.5086 899.691 81.163C901.267 62.0804 902.193 42.8883 902.47 23.5868H900.282C899.903 50.7081 898.24 77.5959 895.293 104.25C896.846 85.1896 897.809 65.9975 898.072 46.6961H895.752C895.402 73.8028 893.746 100.691 890.785 127.36C892.338 108.299 893.301 89.1068 893.564 69.8053H891.244C890.894 96.9412 889.231 123.829 886.255 150.469C887.83 131.415 888.757 112.238 889.034 92.9364H886.736C886.371 120.043 884.708 146.931 881.747 173.6C883.3 154.539 884.263 135.347 884.526 116.046H882.425C882.075 143.167 880.419 170.055 877.457 196.709C879.011 177.627 879.974 158.456 880.237 139.155H877.917C877.567 165.328 875.998 191.267 873.212 216.974C873.212 217.105 873.212 217.214 873.212 217.324C874.656 199.095 875.553 180.734 875.794 162.264H873.606C873.299 184.425 872.125 206.448 870.083 228.331C869.907 228.857 869.754 229.36 869.601 229.885C870.564 215.113 871.199 200.276 871.396 185.373H869.076C868.843 203.595 867.996 221.722 866.537 239.755L865.684 242.534C866.275 231.22 866.734 219.862 866.866 208.483H864.677C864.488 222.62 863.948 236.691 863.058 250.696C862.642 251.9 862.248 253.082 861.854 254.264C862.139 246.736 862.38 239.186 862.467 231.614H860.169C860.016 241.899 859.644 252.119 859.141 262.251C858.659 263.608 858.134 264.921 857.653 266.278C857.653 262.404 857.893 258.531 857.959 254.636H855.639C855.639 260.785 855.399 266.934 855.18 273.084L853.429 277.81H851.109C851.109 279.999 850.978 282.187 850.934 284.376C846.412 296.193 841.597 307.923 836.491 319.565C750.37 515.266 591.575 669.847 393.629 750.675C291.804 792.134 182.653 812.596 72.7258 810.833L68.4804 832.717L72.7258 813.022C180.884 814.595 288.288 794.783 388.767 754.723C489.245 714.663 580.819 655.145 658.226 579.588C734.439 505.574 795.566 417.476 838.22 320.177C840.963 313.933 843.618 307.667 846.186 301.379C846.186 303.305 846.076 305.209 846.032 307.135C841.481 318.952 836.666 330.682 831.589 342.324C745.51 538.108 586.7 692.766 388.706 773.631C287.021 815.083 178.014 835.582 68.2178 833.899L64.1912 854.557L68.1521 836.218C176.329 837.785 283.749 817.959 384.24 777.88C484.731 737.801 576.311 678.259 653.718 602.675C729.931 528.658 791.052 440.551 833.69 343.243C836.433 337.013 839.088 330.747 841.656 324.445C841.656 326.371 841.656 328.296 841.524 330.2C836.972 342.017 832.18 353.769 827.059 365.411C740.955 561.124 582.155 715.711 384.197 796.521C282.516 837.96 173.52 858.458 63.7316 856.789L59.9457 876.244L63.6441 859.087C171.805 860.682 279.214 840.889 379.701 800.844C480.188 760.798 571.771 701.291 649.188 625.74C725.407 551.733 786.536 463.633 829.182 366.33C831.925 360.086 834.58 353.82 837.148 347.532C837.148 349.458 837.148 351.384 836.994 353.288C832.457 365.105 827.643 376.834 822.551 388.477C736.43 584.178 577.635 738.759 379.689 819.587C278.017 861.03 169.028 881.536 59.2454 879.876L55.7003 898.018L59.136 882.174C167.291 883.774 274.697 863.988 375.183 823.955C475.669 783.921 567.255 724.428 644.68 648.893C720.893 574.88 782.02 486.782 824.674 389.483C827.417 383.239 830.072 376.973 832.639 370.685C832.639 372.611 832.639 374.515 832.486 376.441C827.934 388.258 823.12 399.987 818.043 411.63C731.922 607.339 573.118 761.922 375.159 842.74C273.495 884.182 164.512 904.68 54.7374 903.008L51.4548 919.946L54.6061 905.327C216.497 907.432 375.425 861.823 511.563 774.19C647.701 686.557 755.024 560.78 820.144 412.549C824.521 402.832 828.438 393.007 832.311 383.159C832.311 384.844 832.311 386.551 832.18 388.236C826.424 403.861 820.253 419.377 813.513 434.717C748.746 582.631 641.782 708.152 506.014 795.561C370.246 882.971 211.708 928.385 50.2512 926.117L47.1875 941.829L50.098 928.415C158.265 929.999 265.678 910.191 366.165 870.131C466.652 830.071 558.232 770.547 635.642 694.981C711.868 620.979 772.998 532.878 815.636 435.57C821.471 422.44 826.877 409.171 831.852 395.764C831.852 397.34 831.699 398.893 831.611 400.447C824.827 419.778 817.292 438.868 809.005 457.717C744.253 605.644 637.298 731.181 501.533 818.606C365.768 906.032 207.228 951.461 45.765 949.204L42.9421 963.713L45.5681 951.502C153.737 953.083 261.153 933.274 361.644 893.214C462.134 853.154 553.718 793.632 631.134 718.068C707.346 644.055 768.474 555.957 811.128 458.658C818.422 442.026 825.126 425.249 831.239 408.325C831.239 409.551 831.108 410.798 831.02 412.024C823.229 435.279 814.388 458.235 804.497 480.892C739.73 628.795 632.771 754.306 497.012 841.711C361.252 929.116 202.726 974.531 41.2789 972.27L38.6966 985.553L41.06 974.611C202.963 976.706 361.899 931.081 498.039 843.428C634.179 755.775 741.495 629.975 806.598 481.723C815.351 461.809 823.259 441.632 830.32 421.193C830.32 422.178 830.189 423.141 830.101 424.103C776.609 591.797 670.616 737.847 527.769 840.694C384.923 943.54 212.794 997.732 36.7927 995.27L34.4293 1007.35L36.6176 997.567C198.492 999.643 357.396 954.025 493.518 866.399C629.64 778.773 736.957 653.017 802.09 504.811C812.302 481.468 821.377 457.834 829.313 433.907C829.313 434.542 829.182 435.155 829.138 435.789C777.516 606.21 671.863 755.216 528.123 860.321C384.383 965.425 210.357 1020.93 32.3065 1018.44L30.1182 1029.39L31.9783 1020.83C193.894 1022.92 352.84 977.285 488.99 889.625C625.14 801.965 732.467 676.158 797.582 527.898C809.112 501.573 819.258 474.663 827.978 447.278C827.978 447.278 827.978 447.453 827.978 447.541C778.254 620.624 672.977 772.546 528.378 879.884C383.779 987.222 207.887 1044.02 27.8204 1041.51L25.9383 1051.18L27.514 1043.83C204.472 1046.29 377.514 991.67 520.993 888.065C664.472 784.461 770.753 637.385 824.083 468.637C774.713 642.21 669.507 794.67 524.749 902.42C379.99 1010.17 203.752 1067.2 23.3123 1064.68L21.6711 1073.11L23.0059 1066.98C199.963 1069.45 373.006 1014.84 516.486 911.236C659.966 807.635 766.247 660.56 819.575 491.812C770.174 665.348 664.957 817.767 520.206 925.482C375.455 1033.2 199.24 1090.21 18.8261 1087.68L17.4474 1094.82L18.476 1089.98C195.439 1092.46 368.49 1037.85 511.974 934.244C655.457 830.637 761.733 683.549 815.045 514.79C765.662 688.335 660.459 840.768 515.715 948.499C370.972 1056.23 194.758 1113.26 14.34 1110.75L13.1801 1116.68L13.9679 1113.07C190.922 1115.5 363.953 1060.87 507.427 957.262C650.901 853.657 757.186 706.593 810.537 537.855C761.159 711.401 655.961 863.836 511.221 971.571C366.482 1079.31 190.27 1136.34 9.85377 1133.84L8.93469 1138.56L9.45988 1136.14C186.382 1138.58 359.384 1083.96 502.828 980.369C646.271 876.776 752.521 729.725 805.832 561.008C756.451 734.505 651.281 886.899 506.587 994.618C361.893 1102.34 185.739 1159.38 5.36763 1156.92L4.68924 1160.4L4.92992 1159.22C181.887 1161.67 354.924 1107.04 498.396 1003.43C641.868 899.819 748.138 752.737 801.455 583.986C752.086 757.518 646.906 909.944 502.188 1017.68C357.471 1125.42 181.282 1182.46 0.881482 1179.99L0.421875 1182.31C195.052 1185.04 384.354 1118.71 534.71 995.095C685.067 871.477 786.748 698.573 821.698 507.087ZM868.616 239.667C868.616 239.667 868.616 239.842 868.616 239.93C868.616 240.017 868.616 240.17 868.616 240.28C868.628 240.185 868.628 240.09 868.616 239.995C868.616 239.995 868.573 239.667 868.616 239.667ZM865.443 249.383L865.246 251.244C865.093 251.769 864.94 252.294 864.765 252.819C864.765 252.185 864.874 251.572 864.918 250.937L865.443 249.383ZM860.738 274.331C860.585 274.856 860.41 275.359 860.257 275.885C860.257 275.272 860.257 274.637 860.388 274.025L860.935 272.449L860.738 274.331ZM861.942 259.756C861.942 260.719 861.789 261.682 861.723 262.645C861.657 263.608 861.154 264.505 860.848 265.424C860.848 264.461 860.957 263.477 861.001 262.514C861.045 261.551 861.614 260.566 861.942 259.647V259.756ZM857.193 285.623C856.909 286.542 856.646 287.483 856.34 288.402C856.34 287.439 856.34 286.455 856.493 285.492C856.646 284.529 857.106 283.632 857.412 282.712C857.346 283.697 857.281 284.66 857.193 285.623ZM858.331 269.735C858.331 270.983 858.2 272.23 858.112 273.456C858.025 274.681 857.324 275.841 856.909 277.023C856.909 275.753 856.909 274.484 857.062 273.193C857.477 272.055 857.915 270.895 858.353 269.735H858.331ZM853.604 296.565L852.401 300.11L852.532 296.302C852.97 295.142 853.385 294.004 853.801 292.845L853.604 296.565ZM854.436 280.393C854.436 281.946 854.282 283.5 854.195 285.076C853.735 286.411 853.21 287.746 852.729 289.081C852.729 287.571 852.729 286.061 852.838 284.529C853.385 283.128 853.976 281.75 854.436 280.371V280.393ZM849.599 308.119C849.118 309.476 848.615 310.811 848.133 312.146C848.133 310.636 848.133 309.104 848.133 307.594C848.658 306.216 849.205 304.837 849.731 303.436C849.84 305.012 849.753 306.566 849.599 308.119ZM846.448 300.482C847.761 297.265 849.009 293.917 850.278 290.766C850.278 292.451 850.278 294.158 850.146 295.843C849.578 297.418 849.009 299.016 848.418 300.591L846.448 300.482ZM841.94 323.569C843.253 320.331 844.5 317.004 845.77 313.853C845.77 315.538 845.77 317.245 845.638 318.93C845.069 320.506 844.501 322.103 843.91 323.679L841.94 323.569ZM837.41 346.657C838.745 343.418 839.971 340.092 841.262 336.919C841.262 338.625 841.262 340.311 841.13 341.996L839.38 346.766L837.41 346.657ZM834.872 369.832H832.902C834.215 366.615 835.462 363.267 836.732 360.115C836.732 361.822 836.732 363.507 836.6 365.192C836.119 366.593 835.55 368.256 834.959 369.832H834.872ZM843.735 330.682L845.31 326.524C845.31 328.077 845.157 329.631 845.091 331.207C844.61 332.542 844.085 333.877 843.603 335.233L843.735 330.682ZM840.846 349.611C840.846 351.165 840.693 352.719 840.605 354.294C840.146 355.629 839.62 356.964 839.139 358.321C839.139 356.789 839.139 355.279 839.139 353.769C839.817 352.368 840.364 350.99 840.846 349.611ZM834.609 381.386L834.74 376.834L836.338 372.698C836.338 374.252 836.163 375.806 836.097 377.36C835.659 378.717 835.134 380.051 834.653 381.386H834.609ZM847.98 319.368C848.396 318.208 848.834 317.048 849.249 315.91L849.052 319.608C848.637 320.79 848.243 321.994 847.849 323.176L847.98 319.368ZM844.741 339.063C844.741 340.311 844.61 341.536 844.522 342.783C844.435 344.031 843.735 345.147 843.319 346.35C843.319 345.081 843.428 343.812 843.472 342.521C843.932 341.295 844.369 340.135 844.785 338.976L844.741 339.063ZM840.211 362.15C840.211 363.376 840.102 364.623 840.014 365.849C839.927 367.074 839.205 368.234 838.811 369.438L838.942 365.608C839.423 364.404 839.839 363.223 840.255 362.063L840.211 362.15ZM834.281 392.416C834.281 391.146 834.39 389.877 834.434 388.608C834.85 387.448 835.287 386.31 835.703 385.15C835.703 386.376 835.572 387.623 835.484 388.871C835.397 390.118 834.74 391.234 834.281 392.416ZM851.919 308.557C852.247 307.638 852.554 306.719 852.86 305.8C852.86 306.763 852.729 307.726 852.641 308.71L851.788 311.49L851.919 308.557ZM848.352 328.887C848.352 329.85 848.199 330.813 848.133 331.776C848.068 332.739 847.564 333.636 847.258 334.555C847.258 333.592 847.258 332.607 847.411 331.645C847.564 330.682 848.068 329.806 848.396 328.887H848.352ZM843.822 351.953L843.625 354.863C843.319 355.782 843.056 356.723 842.75 357.642C842.75 356.68 842.859 355.695 842.903 354.732C842.947 353.769 843.559 352.872 843.866 351.953H843.822ZM839.314 375.04C839.314 376.003 839.183 376.966 839.095 377.951L838.242 380.73L838.373 377.819C838.657 376.9 839.051 375.959 839.358 375.04H839.314ZM833.756 403.795C833.756 402.832 833.756 401.87 833.909 400.885C834.062 399.9 834.521 399.047 834.85 398.127C834.85 399.09 834.696 400.053 834.631 401.016C834.565 401.979 834.062 402.876 833.756 403.795ZM855.88 297.003L856.405 295.427C856.405 296.04 856.274 296.674 856.23 297.309C856.186 297.944 855.902 298.337 855.749 298.863L855.88 297.003ZM851.897 318.449L851.7 320.309C851.547 320.834 851.394 321.359 851.219 321.862C851.219 321.25 851.219 320.637 851.372 320.002L851.897 318.449ZM847.411 341.58L847.214 343.462C847.061 343.987 846.886 344.49 846.733 345.016C846.733 344.403 846.842 343.768 846.864 343.155L847.411 341.58ZM842.881 364.667C842.881 365.302 842.75 365.915 842.706 366.549C842.662 367.184 842.378 367.578 842.225 368.103L842.356 366.243L842.881 364.667ZM838.373 387.755L838.176 389.615C838.023 390.14 837.87 390.665 837.695 391.19C837.695 390.556 837.804 389.943 837.848 389.33L838.373 387.755ZM833.187 414.256C833.187 413.643 833.187 413.008 833.318 412.396L833.865 410.82L833.668 412.702C833.493 413.227 833.318 413.731 833.165 414.256H833.187ZM863.999 263.258C863.999 263.258 863.999 263.061 863.999 262.973V262.645C863.988 262.732 863.988 262.82 863.999 262.908C863.999 262.908 864.021 263.148 863.977 263.258H863.999ZM859.491 286.323C859.48 286.236 859.48 286.148 859.491 286.061C859.491 285.951 859.491 285.842 859.491 285.732C859.501 285.812 859.501 285.893 859.491 285.973C859.535 286.104 859.491 286.214 859.469 286.323H859.491ZM854.961 309.411C854.973 309.316 854.973 309.221 854.961 309.126V308.798C854.961 308.798 854.961 308.973 854.961 309.06C854.961 309.148 854.983 309.301 854.939 309.411H854.961ZM850.453 332.498C850.453 332.389 850.453 332.301 850.453 332.214C850.453 332.126 850.453 331.995 850.562 331.885C850.552 331.972 850.552 332.061 850.562 332.148C850.497 332.257 850.475 332.367 850.431 332.498H850.453ZM845.923 355.651C845.912 355.564 845.912 355.476 845.923 355.388C845.923 355.388 845.923 355.17 845.923 355.06C845.934 355.147 845.934 355.236 845.923 355.323C845.989 355.345 845.945 355.454 845.923 355.651ZM841.393 378.738C841.404 378.644 841.404 378.548 841.393 378.454C841.393 378.344 841.393 378.235 841.393 378.126C841.393 378.016 841.393 378.301 841.393 378.388C841.393 378.476 841.437 378.52 841.393 378.651V378.738ZM836.885 401.826C836.885 401.826 836.885 401.629 836.885 401.541C836.885 401.454 836.885 401.322 836.885 401.191C836.873 401.286 836.873 401.381 836.885 401.476C836.951 401.607 836.929 401.607 836.885 401.738V401.826ZM832.377 424.891C832.366 424.804 832.366 424.716 832.377 424.629C832.377 424.519 832.377 424.41 832.377 424.3C832.388 424.388 832.388 424.476 832.377 424.563C832.443 424.585 832.399 424.694 832.377 424.804V424.891ZM45.6118 949.204H45.765L47.1875 941.829L45.6118 949.204ZM50.1199 926.117H50.2512L51.4548 919.968L50.1199 926.117ZM41.1038 972.27H41.2789L42.9421 963.713L41.1038 972.27Z" fill="url(#paint0_linear_1087_1735)"/>
<defs>
<linearGradient id="paint0_linear_1087_1735" x1="350.84" y1="1124.99" x2="435.351" y2="710.892" gradientUnits="userSpaceOnUse">
<stop stop-color="white"/>
<stop offset="1" stop-color="#C7CACA"/>
</linearGradient>
</defs>
</svg>
