<svg width="1512" height="982" viewBox="0 0 1512 982" fill="none" xmlns="http://www.w3.org/2000/svg">
<g clip-path="url(#clip0_1132_1735)">
<path d="M187.352 838.935C-133.398 646.336 -324.202 319.83 -356.503 -26.1304L-685 520.964L748.89 1381.96L757.228 1000.35C556.265 998.384 359.494 942.65 187.352 838.935Z" fill="url(#paint0_linear_1132_1735)"/>
<path d="M187.352 838.935C-133.398 646.336 -324.202 319.83 -356.503 -26.1304L-685 520.964L700.855 1353.12C717.355 1347.21 733.717 1340.89 749.94 1334.16L757.228 1000.35C556.265 998.384 359.494 942.65 187.352 838.935Z" fill="url(#paint1_linear_1132_1735)"/>
<path d="M187.352 838.935C-133.398 646.336 -324.202 319.83 -356.503 -26.1304L-685 1153.21L200.723 1052.8C383.66 1088.62 571.357 1093.06 755.783 1065.93L757.228 1000.28C556.272 998.338 359.501 942.627 187.352 838.935Z" fill="url(#paint2_linear_1132_1735)"/>
<path d="M187.352 838.935C-133.398 646.336 -324.202 319.83 -356.503 -26.1304L-510.477 230.282C-399.101 476.84 -214.978 683.436 17.1841 822.347C239.868 956.545 497.086 1022.33 756.855 1011.51L757.096 1000.35C556.178 998.361 359.456 942.627 187.352 838.935Z" fill="url(#paint3_linear_1132_1735)"/>
<path d="M188.994 836.221C-131.757 643.622 -322.583 317.117 -354.84 -28.8438L-476.82 174.15C-375.578 448.064 -183.766 679.153 66.8165 829.109C274.817 954.452 514.181 1018.04 756.965 1012.45L757.293 997.614C556.866 995.393 360.671 939.675 188.994 836.221Z" fill="url(#paint4_linear_1132_1735)"/>
<path d="M689.52 1376.68H689.826L692.671 1362.02L689.52 1376.68ZM703.066 1307.44H703.307L705.495 1296.5L703.066 1307.44ZM707.574 1284.36H707.793L709.697 1274.55L707.574 1284.36ZM698.558 1330.51H698.82L701.184 1318.3L698.558 1330.51ZM694.028 1353.68H694.312L696.938 1340.27L694.028 1353.68ZM671.509 1468.99H671.925L675.733 1449.3L671.509 1468.99ZM675.886 1445.92H676.28L679.847 1427.56L675.886 1445.92ZM680.394 1422.84H680.766L684.093 1405.68L680.394 1422.84ZM684.924 1399.75H685.252L688.36 1383.82L684.924 1399.75ZM1492.7 796.087C1494.32 788.442 1495.78 780.783 1497.07 773.109C1498.72 765.406 1500.2 757.681 1501.63 749.912C1503.05 742.143 1504.73 734.593 1506.13 726.846C1507.53 719.1 1509.24 711.528 1510.64 703.781C1512.04 696.034 1513.77 688.462 1515.17 680.694C1516.57 672.925 1518.28 665.375 1519.68 657.606C1521.08 649.837 1522.79 642.288 1524.19 634.519C1525.59 626.75 1527.32 619.2 1528.72 611.453C1530.12 603.706 1531.8 596.135 1533.1 588.454C1534.39 580.772 1536.22 573.135 1537.63 565.3C1539.03 557.466 1540.75 549.982 1542.15 542.213C1543.56 534.444 1545.26 526.894 1546.66 519.104C1548.06 511.313 1549.77 503.785 1551.17 496.038C1552.57 488.292 1554.3 480.72 1555.7 472.973C1557.1 465.226 1558.81 457.654 1560.21 449.886C1571.34 397.122 1577.3 343.398 1578 289.478H1575.68C1575.33 316.613 1573.67 343.509 1570.69 370.163C1572.27 351.08 1573.19 331.888 1573.47 312.587H1571.28C1570.9 339.708 1569.24 366.596 1566.29 393.25C1567.85 374.19 1568.81 354.998 1569.07 335.696H1566.75C1566.4 362.803 1564.75 389.691 1561.78 416.36C1563.34 397.299 1564.3 378.107 1564.56 358.805H1562.24C1561.89 385.941 1560.23 412.829 1557.25 439.469C1558.83 420.415 1559.76 401.238 1560.03 381.936H1557.74C1557.37 409.043 1555.71 435.931 1552.75 462.6C1554.3 443.539 1555.26 424.347 1555.53 405.046H1553.43C1553.07 432.167 1551.42 459.055 1548.46 485.709C1550.01 466.627 1550.97 447.456 1551.24 428.155H1548.92C1548.57 454.328 1547 480.267 1544.21 505.974C1544.21 506.105 1544.21 506.214 1544.21 506.324C1545.66 488.095 1546.55 469.734 1546.79 451.264H1544.61C1544.3 473.425 1543.13 495.448 1541.08 517.331C1540.91 517.857 1540.75 518.36 1540.6 518.885C1541.56 504.113 1542.2 489.276 1542.4 474.373H1540.08C1539.84 492.595 1539 510.722 1537.54 528.755L1536.68 531.534C1537.27 520.22 1537.73 508.862 1537.87 497.483H1535.68C1535.49 511.62 1534.95 525.691 1534.06 539.696C1533.64 540.9 1533.25 542.082 1532.85 543.264C1533.14 535.736 1533.38 528.186 1533.47 520.614H1531.17C1531.02 530.899 1530.64 541.119 1530.14 551.251C1529.66 552.608 1529.13 553.921 1528.65 555.278C1528.65 551.404 1528.89 547.531 1528.96 543.636H1526.64C1526.64 549.785 1526.4 555.934 1526.18 562.084L1524.43 566.81H1522.11C1522.11 568.999 1521.98 571.187 1521.93 573.376C1517.41 585.193 1512.6 596.923 1507.49 608.565C1421.37 804.266 1262.58 958.847 1064.63 1039.67C962.804 1081.13 853.653 1101.6 743.726 1099.83L739.48 1121.72L743.726 1102.02C851.884 1103.6 959.288 1083.78 1059.77 1043.72C1160.25 1003.66 1251.82 944.145 1329.23 868.588C1405.44 794.574 1466.57 706.476 1509.22 609.177C1511.96 602.933 1514.62 596.667 1517.19 590.379C1517.19 592.305 1517.08 594.209 1517.03 596.135C1512.48 607.952 1507.67 619.682 1502.59 631.324C1416.51 827.108 1257.7 981.766 1059.71 1062.63C958.021 1104.08 849.014 1124.58 739.218 1122.9L735.191 1143.56L739.152 1125.22C847.329 1126.78 954.749 1106.96 1055.24 1066.88C1155.73 1026.8 1247.31 967.259 1324.72 891.675C1400.93 817.658 1462.05 729.551 1504.69 632.243C1507.43 626.013 1510.09 619.747 1512.66 613.445C1512.66 615.371 1512.66 617.296 1512.52 619.2C1507.97 631.017 1503.18 642.769 1498.06 654.411C1411.96 850.124 1253.16 1004.71 1055.2 1085.52C953.516 1126.96 844.52 1147.46 734.732 1145.79L730.946 1165.24L734.644 1148.09C842.805 1149.68 950.214 1129.89 1050.7 1089.84C1151.19 1049.8 1242.77 990.291 1320.19 914.74C1396.41 840.733 1457.54 752.633 1500.18 655.33C1502.92 649.086 1505.58 642.82 1508.15 636.532C1508.15 638.458 1508.15 640.384 1507.99 642.288C1503.46 654.105 1498.64 665.834 1493.55 677.477C1407.43 873.178 1248.64 1027.76 1050.69 1108.59C949.017 1150.03 840.028 1170.54 730.245 1168.88L726.7 1187.02L730.136 1171.17C838.291 1172.77 945.697 1152.99 1046.18 1112.95C1146.67 1072.92 1238.25 1013.43 1315.68 937.893C1391.89 863.88 1453.02 775.782 1495.67 678.483C1498.42 672.239 1501.07 665.973 1503.64 659.685C1503.64 661.611 1503.64 663.515 1503.49 665.441C1498.93 677.258 1494.12 688.987 1489.04 700.63C1402.92 896.339 1244.12 1050.92 1046.16 1131.74C944.495 1173.18 835.512 1193.68 725.737 1192.01L722.455 1208.95L725.606 1194.33C887.497 1196.43 1046.42 1150.82 1182.56 1063.19C1318.7 975.557 1426.02 849.78 1491.14 701.549C1495.52 691.832 1499.44 682.007 1503.31 672.159C1503.31 673.844 1503.31 675.551 1503.18 677.236C1497.42 692.861 1491.25 708.377 1484.51 723.717C1419.75 871.631 1312.78 997.152 1177.01 1084.56C1041.25 1171.97 882.708 1217.38 721.251 1215.12L718.187 1230.83L721.098 1217.41C829.265 1219 936.678 1199.19 1037.17 1159.13C1137.65 1119.07 1229.23 1059.55 1306.64 983.981C1382.87 909.979 1444 821.878 1486.64 724.57C1492.47 711.44 1497.88 698.171 1502.85 684.764C1502.85 686.34 1502.7 687.893 1502.61 689.447C1495.83 708.778 1488.29 727.868 1480.01 746.717C1415.25 894.644 1308.3 1020.18 1172.53 1107.61C1036.77 1195.03 878.228 1240.46 716.765 1238.2L713.942 1252.71L716.568 1240.5C824.737 1242.08 932.153 1222.27 1032.64 1182.21C1133.13 1142.15 1224.72 1082.63 1302.13 1007.07C1378.35 933.055 1439.47 844.957 1482.13 747.658C1489.42 731.026 1496.13 714.249 1502.24 697.325C1502.24 698.551 1502.11 699.798 1502.02 701.024C1494.23 724.279 1485.39 747.235 1475.5 769.892C1410.73 917.795 1303.77 1043.31 1168.01 1130.71C1032.25 1218.12 873.726 1263.53 712.279 1261.27L709.697 1274.55L712.06 1263.61C873.963 1265.71 1032.9 1220.08 1169.04 1132.43C1305.18 1044.78 1412.49 918.975 1477.6 770.723C1486.35 750.809 1494.26 730.632 1501.32 710.193C1501.32 711.178 1501.19 712.141 1501.1 713.103C1447.61 880.797 1341.62 1026.85 1198.77 1129.69C1055.92 1232.54 883.794 1286.73 707.793 1284.27L705.429 1296.35L707.618 1286.57C869.492 1288.64 1028.4 1243.02 1164.52 1155.4C1300.64 1067.77 1407.96 942.017 1473.09 793.811C1483.3 770.468 1492.38 746.834 1500.31 722.907C1500.31 723.542 1500.18 724.155 1500.14 724.789C1448.52 895.21 1342.86 1044.22 1199.12 1149.32C1055.38 1254.43 881.357 1309.93 703.307 1307.44L701.118 1318.39L702.978 1309.83C864.894 1311.92 1023.84 1266.28 1159.99 1178.62C1296.14 1090.96 1403.47 965.158 1468.58 816.898C1480.11 790.573 1490.26 763.663 1498.98 736.278C1498.98 736.278 1498.98 736.453 1498.98 736.541C1449.25 909.624 1343.98 1061.55 1199.38 1168.88C1054.78 1276.22 878.887 1333.02 698.82 1330.51L696.938 1340.18L698.514 1332.83C875.472 1335.29 1048.51 1280.67 1191.99 1177.07C1335.47 1073.46 1441.75 926.385 1495.08 757.637C1445.71 931.21 1340.51 1083.67 1195.75 1191.42C1050.99 1299.17 874.752 1356.2 694.312 1353.68L692.671 1362.11L694.006 1355.98C870.963 1358.45 1044.01 1303.84 1187.49 1200.24C1330.97 1096.63 1437.25 949.56 1490.57 780.812C1441.17 954.348 1335.96 1106.77 1191.21 1214.48C1046.46 1322.2 870.24 1379.21 689.826 1376.68L688.447 1383.82L689.476 1378.98C866.439 1381.46 1039.49 1326.85 1182.97 1223.24C1326.46 1119.64 1432.73 972.549 1486.04 803.79C1436.66 977.335 1331.46 1129.77 1186.72 1237.5C1041.97 1345.23 865.758 1402.26 685.34 1399.75L684.18 1405.68L684.968 1402.07C861.922 1404.5 1034.95 1349.87 1178.43 1246.26C1321.9 1142.66 1428.19 995.593 1481.54 826.855C1432.16 1000.4 1326.96 1152.84 1182.22 1260.57C1037.48 1368.31 861.27 1425.34 680.854 1422.84L679.935 1427.56L680.46 1425.14C857.382 1427.58 1030.38 1372.96 1173.83 1269.37C1317.27 1165.78 1423.52 1018.72 1476.83 850.008C1427.45 1023.51 1322.28 1175.9 1177.59 1283.62C1032.89 1391.34 856.739 1448.38 676.368 1445.92L675.689 1449.4L675.93 1448.22C852.887 1450.67 1025.92 1396.04 1169.4 1292.43C1312.87 1188.82 1419.14 1041.74 1472.46 872.986C1423.09 1046.52 1317.91 1198.94 1173.19 1306.68C1028.47 1414.42 852.282 1471.46 671.881 1468.99L671.422 1471.31C866.052 1474.04 1055.35 1407.71 1205.71 1284.09C1356.07 1160.48 1457.75 987.573 1492.7 796.087ZM1539.62 528.667C1539.62 528.667 1539.62 528.842 1539.62 528.93C1539.62 529.017 1539.62 529.17 1539.62 529.28C1539.63 529.185 1539.63 529.09 1539.62 528.995C1539.62 528.995 1539.57 528.667 1539.62 528.667ZM1536.44 538.383L1536.25 540.244C1536.09 540.769 1535.94 541.294 1535.76 541.819C1535.76 541.185 1535.87 540.572 1535.92 539.937L1536.44 538.383ZM1531.74 563.331C1531.59 563.856 1531.41 564.359 1531.26 564.885C1531.26 564.272 1531.26 563.637 1531.39 563.025L1531.94 561.449L1531.74 563.331ZM1532.94 548.756C1532.94 549.719 1532.79 550.682 1532.72 551.645C1532.66 552.608 1532.15 553.505 1531.85 554.424C1531.85 553.461 1531.96 552.477 1532 551.514C1532.04 550.551 1532.61 549.566 1532.94 548.647V548.756ZM1528.19 574.623C1527.91 575.542 1527.65 576.483 1527.34 577.402C1527.34 576.439 1527.34 575.455 1527.49 574.492C1527.65 573.529 1528.11 572.632 1528.41 571.712C1528.35 572.697 1528.28 573.66 1528.19 574.623ZM1529.33 558.735C1529.33 559.983 1529.2 561.23 1529.11 562.456C1529.02 563.681 1528.32 564.841 1527.91 566.023C1527.91 564.753 1527.91 563.484 1528.06 562.193C1528.48 561.055 1528.92 559.895 1529.35 558.735H1529.33ZM1524.6 585.565L1523.4 589.11L1523.53 585.302C1523.97 584.142 1524.39 583.004 1524.8 581.845L1524.6 585.565ZM1525.44 569.393C1525.44 570.946 1525.28 572.5 1525.19 574.076C1524.74 575.411 1524.21 576.746 1523.73 578.081C1523.73 576.571 1523.73 575.061 1523.84 573.529C1524.39 572.128 1524.98 570.75 1525.44 569.371V569.393ZM1520.6 597.119C1520.12 598.476 1519.61 599.811 1519.13 601.146C1519.13 599.636 1519.13 598.104 1519.13 596.594C1519.66 595.216 1520.21 593.837 1520.73 592.436C1520.84 594.012 1520.75 595.566 1520.6 597.119ZM1517.45 589.482C1518.76 586.265 1520.01 582.917 1521.28 579.766C1521.28 581.451 1521.28 583.158 1521.15 584.843C1520.58 586.418 1520.01 588.016 1519.42 589.591L1517.45 589.482ZM1512.94 612.569C1514.25 609.331 1515.5 606.004 1516.77 602.853C1516.77 604.538 1516.77 606.245 1516.64 607.93C1516.07 609.506 1515.5 611.103 1514.91 612.679L1512.94 612.569ZM1508.41 635.657C1509.75 632.418 1510.97 629.092 1512.26 625.919C1512.26 627.625 1512.26 629.311 1512.13 630.996L1510.38 635.766L1508.41 635.657ZM1505.87 658.832H1503.9C1505.22 655.615 1506.46 652.267 1507.73 649.115C1507.73 650.822 1507.73 652.507 1507.6 654.192C1507.12 655.593 1506.55 657.256 1505.96 658.832H1505.87ZM1514.73 619.682L1516.31 615.524C1516.31 617.077 1516.16 618.631 1516.09 620.207C1515.61 621.542 1515.08 622.877 1514.6 624.233L1514.73 619.682ZM1511.85 638.611C1511.85 640.165 1511.69 641.719 1511.61 643.294C1511.15 644.629 1510.62 645.964 1510.14 647.321C1510.14 645.789 1510.14 644.279 1510.14 642.769C1510.82 641.368 1511.36 639.99 1511.85 638.611ZM1505.61 670.386L1505.74 665.834L1507.34 661.698C1507.34 663.252 1507.16 664.806 1507.1 666.36C1506.66 667.717 1506.13 669.051 1505.65 670.386H1505.61ZM1518.98 608.368C1519.4 607.208 1519.83 606.048 1520.25 604.91L1520.05 608.608C1519.64 609.79 1519.24 610.994 1518.85 612.176L1518.98 608.368ZM1515.74 628.063C1515.74 629.311 1515.61 630.536 1515.52 631.783C1515.43 633.031 1514.73 634.147 1514.32 635.35C1514.32 634.081 1514.43 632.812 1514.47 631.521C1514.93 630.295 1515.37 629.135 1515.78 627.976L1515.74 628.063ZM1511.21 651.15C1511.21 652.376 1511.1 653.623 1511.01 654.849C1510.93 656.074 1510.2 657.234 1509.81 658.438L1509.94 654.608C1510.42 653.404 1510.84 652.223 1511.25 651.063L1511.21 651.15ZM1505.28 681.416C1505.28 680.146 1505.39 678.877 1505.43 677.608C1505.85 676.448 1506.29 675.31 1506.7 674.15C1506.7 675.376 1506.57 676.623 1506.48 677.871C1506.4 679.118 1505.74 680.234 1505.28 681.416ZM1522.92 597.557C1523.25 596.638 1523.55 595.719 1523.86 594.8C1523.86 595.763 1523.73 596.726 1523.64 597.71L1522.79 600.49L1522.92 597.557ZM1519.35 617.887C1519.35 618.85 1519.2 619.813 1519.13 620.776C1519.07 621.739 1518.56 622.636 1518.26 623.555C1518.26 622.592 1518.26 621.607 1518.41 620.645C1518.56 619.682 1519.07 618.806 1519.4 617.887H1519.35ZM1514.82 640.953L1514.63 643.863C1514.32 644.782 1514.06 645.723 1513.75 646.642C1513.75 645.68 1513.86 644.695 1513.9 643.732C1513.95 642.769 1514.56 641.872 1514.87 640.953H1514.82ZM1510.31 664.04C1510.31 665.003 1510.18 665.966 1510.1 666.951L1509.24 669.73L1509.37 666.819C1509.66 665.9 1510.05 664.959 1510.36 664.04H1510.31ZM1504.76 692.795C1504.76 691.832 1504.76 690.87 1504.91 689.885C1505.06 688.9 1505.52 688.047 1505.85 687.127C1505.85 688.09 1505.7 689.053 1505.63 690.016C1505.57 690.979 1505.06 691.876 1504.76 692.795ZM1526.88 586.003L1527.41 584.427C1527.41 585.04 1527.27 585.674 1527.23 586.309C1527.19 586.944 1526.9 587.337 1526.75 587.863L1526.88 586.003ZM1522.9 607.449L1522.7 609.309C1522.55 609.834 1522.39 610.359 1522.22 610.862C1522.22 610.25 1522.22 609.637 1522.37 609.002L1522.9 607.449ZM1518.41 630.58L1518.21 632.462C1518.06 632.987 1517.89 633.49 1517.73 634.016C1517.73 633.403 1517.84 632.768 1517.86 632.155L1518.41 630.58ZM1513.88 653.667C1513.88 654.302 1513.75 654.915 1513.71 655.549C1513.66 656.184 1513.38 656.578 1513.22 657.103L1513.36 655.243L1513.88 653.667ZM1509.37 676.755L1509.18 678.615C1509.02 679.14 1508.87 679.665 1508.69 680.19C1508.69 679.556 1508.8 678.943 1508.85 678.33L1509.37 676.755ZM1504.19 703.256C1504.19 702.643 1504.19 702.008 1504.32 701.396L1504.86 699.82L1504.67 701.702C1504.49 702.227 1504.32 702.731 1504.16 703.256H1504.19ZM1535 552.258C1535 552.258 1535 552.061 1535 551.973V551.645C1534.99 551.732 1534.99 551.82 1535 551.908C1535 551.908 1535.02 552.148 1534.98 552.258H1535ZM1530.49 575.323C1530.48 575.236 1530.48 575.148 1530.49 575.061C1530.49 574.951 1530.49 574.842 1530.49 574.732C1530.5 574.812 1530.5 574.893 1530.49 574.973C1530.53 575.104 1530.49 575.214 1530.47 575.323H1530.49ZM1525.96 598.411C1525.97 598.316 1525.97 598.221 1525.96 598.126V597.798C1525.96 597.798 1525.96 597.973 1525.96 598.06C1525.96 598.148 1525.98 598.301 1525.94 598.411H1525.96ZM1521.45 621.498C1521.45 621.389 1521.45 621.301 1521.45 621.214C1521.45 621.126 1521.45 620.995 1521.56 620.885C1521.55 620.972 1521.55 621.061 1521.56 621.148C1521.5 621.257 1521.47 621.367 1521.43 621.498H1521.45ZM1516.92 644.651C1516.91 644.564 1516.91 644.476 1516.92 644.388C1516.92 644.388 1516.92 644.17 1516.92 644.06C1516.93 644.147 1516.93 644.236 1516.92 644.323C1516.99 644.345 1516.94 644.454 1516.92 644.651ZM1512.39 667.738C1512.4 667.644 1512.4 667.548 1512.39 667.454C1512.39 667.344 1512.39 667.235 1512.39 667.126C1512.39 667.016 1512.39 667.301 1512.39 667.388C1512.39 667.476 1512.44 667.52 1512.39 667.651V667.738ZM1507.88 690.826C1507.88 690.826 1507.88 690.629 1507.88 690.541C1507.88 690.454 1507.88 690.322 1507.88 690.191C1507.87 690.286 1507.87 690.381 1507.88 690.476C1507.95 690.607 1507.93 690.607 1507.88 690.738V690.826ZM1503.38 713.891C1503.37 713.804 1503.37 713.716 1503.38 713.629C1503.38 713.519 1503.38 713.41 1503.38 713.3C1503.39 713.388 1503.39 713.476 1503.38 713.563C1503.44 713.585 1503.4 713.694 1503.38 713.804V713.891ZM716.612 1238.2H716.765L718.187 1230.83L716.612 1238.2ZM721.12 1215.12H721.251L722.455 1208.97L721.12 1215.12ZM712.104 1261.27H712.279L713.942 1252.71L712.104 1261.27Z" fill="url(#paint5_linear_1132_1735)"/>
</g>
<defs>
<linearGradient id="paint0_linear_1132_1735" x1="105.254" y1="714.451" x2="816.82" y2="429.212" gradientUnits="userSpaceOnUse">
<stop stop-color="#FEBE10"/>
<stop offset="1" stop-color="#F79027"/>
</linearGradient>
<linearGradient id="paint1_linear_1132_1735" x1="879.349" y1="321.01" x2="445.754" y2="532.518" gradientUnits="userSpaceOnUse">
<stop stop-color="#354B5B"/>
<stop offset="1" stop-color="#1A2934"/>
</linearGradient>
<linearGradient id="paint2_linear_1132_1735" x1="69.8884" y1="814.849" x2="401.101" y2="955.796" gradientUnits="userSpaceOnUse">
<stop stop-color="#27B262"/>
<stop offset="1" stop-color="#27B262"/>
</linearGradient>
<linearGradient id="paint3_linear_1132_1735" x1="189.492" y1="497.066" x2="781.683" y2="259.689" gradientUnits="userSpaceOnUse">
<stop stop-color="#FEBE10"/>
<stop offset="1" stop-color="#F79027"/>
</linearGradient>
<linearGradient id="paint4_linear_1132_1735" x1="188.862" y1="525.384" x2="743.266" y2="704.612" gradientUnits="userSpaceOnUse">
<stop stop-color="white"/>
<stop offset="1" stop-color="#C7CACA"/>
</linearGradient>
<linearGradient id="paint5_linear_1132_1735" x1="1021.84" y1="1413.99" x2="1106.35" y2="999.892" gradientUnits="userSpaceOnUse">
<stop stop-color="white"/>
<stop offset="1" stop-color="#C7CACA"/>
</linearGradient>
<clipPath id="clip0_1132_1735">
<rect width="1512" height="982" fill="white"/>
</clipPath>
</defs>
</svg>
