<svg width="1512" height="1512" viewBox="0 0 1512 1512" fill="none" xmlns="http://www.w3.org/2000/svg">
<path fill-rule="evenodd" clip-rule="evenodd" d="M0 0H88.8648H90.1622H177.73H179.027H266.594H267.892H355.459H356.757H444.324H445.622H533.189H534.486H622.054H623.352H710.919H712.216H799.783H801.081H888.648H889.946H977.514H978.81H1066.38H1067.68H1155.24H1156.54H1244.11H1245.41H1332.97H1334.27H1421.84H1423.14H1512V88.8649L1512 177.73V179.027V266.595V267.892V355.459V356.757V444.324V445.622V533.189V534.487V622.054V623.351V710.919V712.216V799.784V801.081V888.649V889.946V977.514V978.811V1066.38V1067.68V1155.24V1156.54V1244.11V1245.41V1332.97V1334.27V1421.84V1423.14V1512H1423.14H1421.84H1334.27H1332.97H1245.41H1244.11H1156.54H1155.24H1067.68H1066.38H978.81H977.514H889.946H888.648H801.081H799.783H712.216H710.919H623.352H622.054H534.486H533.189H445.622H444.324H356.757H355.459H267.892H266.595H179.027H177.73H90.1622H88.8648H0V1423.14V1421.84V1334.27V1332.97V1245.41V1244.11V1156.54V1155.24V1067.68V1066.38V978.811V977.514V889.946V888.649V801.081V799.784V712.216V710.919V623.351V622.054V534.487V533.189V445.622V444.324V356.757V355.459V267.892V266.595V179.027V177.73V90.1622V88.8649V0ZM1421.84 1510.7V1423.14H1334.27V1510.7H1421.84ZM1421.84 1421.84V1334.27H1334.27V1421.84H1421.84ZM1421.84 1332.97V1245.41L1334.27 1245.41V1332.97H1421.84ZM1421.84 1244.11V1156.54H1334.27V1244.11H1421.84ZM1421.84 1155.24V1067.68H1334.27V1155.24H1421.84ZM1421.84 1066.38V978.811H1334.27V1066.38H1421.84ZM1421.84 977.514V889.946L1334.27 889.946V977.514H1421.84ZM1421.84 888.649V801.081H1334.27V888.649H1421.84ZM1421.84 799.784V712.216H1334.27V799.784H1421.84ZM1421.84 710.919V623.351L1334.27 623.351V710.919H1421.84ZM1421.84 622.054V534.487H1334.27V622.054H1421.84ZM1421.84 533.189V445.622L1334.27 445.622V533.189H1421.84ZM1421.84 444.324V356.757L1334.27 356.757V444.324H1421.84ZM1421.84 355.459V267.892L1334.27 267.892V355.459H1421.84ZM1421.84 266.595V179.027L1334.27 179.027V266.595H1421.84ZM1421.84 177.73V90.1622L1334.27 90.1622V177.73H1421.84ZM1421.84 88.8649V1.2973H1334.27V88.8649H1421.84ZM1423.14 1510.7H1510.7V1423.14H1423.14L1423.14 1510.7ZM1423.14 1.2973L1423.14 88.8649L1510.7 88.8649V1.2973H1423.14ZM1423.14 90.1622V177.73L1510.7 177.73V90.1622L1423.14 90.1622ZM1423.14 179.027V266.595L1510.7 266.595V179.027L1423.14 179.027ZM1423.14 267.892V355.459L1510.7 355.459V267.892L1423.14 267.892ZM1423.14 356.757V444.324L1510.7 444.324V356.757L1423.14 356.757ZM1423.14 445.622V533.189H1510.7V445.622L1423.14 445.622ZM1423.14 534.487V622.054L1510.7 622.054V534.487H1423.14ZM1423.14 623.351V710.919H1510.7V623.351L1423.14 623.351ZM1423.14 712.216V799.784H1510.7V712.216H1423.14ZM1423.14 801.081V888.649L1510.7 888.649V801.081H1423.14ZM1423.14 889.946V977.514H1510.7V889.946L1423.14 889.946ZM1423.14 978.811V1066.38H1510.7V978.811H1423.14ZM1423.14 1067.68V1155.24H1510.7V1067.68H1423.14ZM1423.14 1156.54V1244.11L1510.7 1244.11V1156.54H1423.14ZM1423.14 1245.41V1332.97H1510.7V1245.41L1423.14 1245.41ZM1423.14 1334.27V1421.84H1510.7V1334.27H1423.14ZM179.027 1.2973H266.594L266.595 88.8649H179.027V1.2973ZM179.027 90.1622L266.595 90.1622V177.73L179.027 177.73V90.1622ZM179.027 179.027L266.595 179.027V266.595L179.027 266.595V179.027ZM179.027 267.892L266.595 267.892V355.459L179.027 355.459V267.892ZM179.027 356.757L266.595 356.757V444.324L179.027 444.324V356.757ZM179.027 445.622L266.595 445.622L266.595 533.189H179.027V445.622ZM179.027 534.487H266.595V622.054H179.027L179.027 534.487ZM179.027 623.351L266.595 623.351V710.919H179.027L179.027 623.351ZM179.027 712.216H266.595V799.784H179.027L179.027 712.216ZM179.027 801.081H266.595V888.649H179.027L179.027 801.081ZM179.027 889.946L266.595 889.946V977.514H179.027L179.027 889.946ZM179.027 978.811H266.595V1066.38H179.027L179.027 978.811ZM179.027 1067.68H266.595V1155.24H179.027L179.027 1067.68ZM179.027 1156.54H266.595V1244.11H179.027L179.027 1156.54ZM179.027 1245.41L266.595 1245.41V1332.97H179.027L179.027 1245.41ZM179.027 1334.27H266.595V1421.84H179.027L179.027 1334.27ZM179.027 1423.14H266.595V1510.7H179.027L179.027 1423.14ZM267.892 1.2973V88.8649L355.459 88.8649V1.2973H267.892ZM267.892 90.1622V177.73L355.46 177.73V90.1622L267.892 90.1622ZM267.892 179.027V266.595L355.46 266.595L355.459 179.027H267.892ZM267.892 267.892V355.459L355.46 355.459L355.459 267.892H267.892ZM267.892 356.757V444.324L355.46 444.324L355.459 356.757H267.892ZM355.46 533.189H267.892V445.622H355.459L355.46 533.189ZM355.46 1510.7H267.892L267.892 1423.14H355.459L355.46 1510.7ZM355.46 1421.84H267.892V1334.27H355.459L355.46 1421.84ZM355.46 1332.97H267.892V1245.41H355.459L355.46 1332.97ZM355.46 1244.11L267.892 1244.11V1156.54H355.459L355.46 1244.11ZM355.46 1155.24H267.892V1067.68H355.459L355.46 1155.24ZM355.46 1066.38H267.892V978.811H355.459L355.46 1066.38ZM355.46 977.514H267.892V889.946H355.459L355.46 977.514ZM355.46 888.649L267.892 888.649V801.081H355.459L355.46 888.649ZM355.46 799.784H267.892V712.216H355.459L355.46 799.784ZM355.46 710.919H267.892V623.351H355.459L355.46 710.919ZM355.46 622.054L267.892 622.054V534.487H355.459L355.46 622.054ZM177.73 1421.84L177.73 1334.27H90.1622L90.1621 1421.84H177.73ZM177.73 1423.14H90.1622L90.1621 1510.7H177.73L177.73 1423.14ZM88.8648 1423.14L88.8649 1510.7H1.2973V1423.14H88.8648ZM1.2973 1421.84H88.8649L88.8648 1334.27H1.2973V1421.84ZM177.73 1245.41L177.73 1332.97H90.1621L90.1622 1245.41H177.73ZM88.8649 1332.97H1.2973V1245.41L88.8648 1245.41L88.8649 1332.97ZM177.73 1244.11L177.73 1156.54H90.1622L90.1621 1244.11H177.73ZM1.2973 1244.11H88.8649L88.8648 1156.54H1.2973V1244.11ZM177.73 1067.68L177.73 1155.24H90.1621L90.1622 1067.68H177.73ZM88.8649 1155.24H1.2973V1067.68H88.8648L88.8649 1155.24ZM177.73 1066.38L177.73 978.811H90.1622L90.1621 1066.38H177.73ZM1.2973 1066.38H88.8649L88.8648 978.811H1.2973V1066.38ZM177.73 889.946L177.73 977.514H90.1621L90.1622 889.946H177.73ZM88.8649 977.514H1.2973V889.946L88.8648 889.946L88.8649 977.514ZM177.73 801.081L177.73 888.649H90.1621L90.1622 801.081H177.73ZM88.8648 801.081L88.8649 888.649H1.2973V801.081H88.8648ZM177.73 712.216L177.73 799.784H90.1621L90.1622 712.216H177.73ZM88.8649 799.784H1.2973V712.216H88.8648L88.8649 799.784ZM177.73 710.919L177.73 623.351H90.1622L90.1621 710.919H177.73ZM1.2973 710.919H88.8649L88.8648 623.351L1.2973 623.351V710.919ZM177.73 534.487L177.73 622.054H90.1621L90.1622 534.487H177.73ZM88.8649 622.054H1.2973V534.487H88.8648L88.8649 622.054ZM177.73 445.622V533.189H90.1621L90.1622 445.622L177.73 445.622ZM88.8648 445.622L88.8649 533.189H1.2973V445.622L88.8648 445.622ZM90.1621 444.324H177.73V356.757L90.1622 356.757L90.1621 444.324ZM88.8649 444.324H1.2973V356.757L88.8648 356.757L88.8649 444.324ZM177.73 267.892V355.459H90.1621L90.1622 267.892L177.73 267.892ZM88.8648 267.892L88.8649 355.459H1.2973V267.892L88.8648 267.892ZM90.1621 266.595H177.73V179.027L90.1622 179.027L90.1621 266.595ZM88.8649 266.595H1.2973V179.027L88.8648 179.027L88.8649 266.595ZM177.73 90.1622V177.73H90.1621L90.1622 90.1622L177.73 90.1622ZM88.8649 90.1622V177.73H1.2973V90.1622H88.8649ZM1.2973 1.2973H88.8649V88.8649H1.2973V1.2973ZM90.1621 88.8649V1.2973H177.73V88.8649H90.1621ZM444.324 1510.7L444.324 1423.14H356.757L356.757 1510.7H444.324ZM445.622 1421.84H533.189V1334.27H445.622L445.622 1421.84ZM444.324 1421.84H356.757L356.757 1334.27H444.324L444.324 1421.84ZM445.622 1510.7H533.189V1423.14H445.622L445.622 1510.7ZM533.189 1245.41V1332.97H445.622L445.622 1245.41L533.189 1245.41ZM444.324 1245.41L444.324 1332.97H356.757L356.757 1245.41H444.324ZM445.622 1244.11H533.189V1156.54H445.622L445.622 1244.11ZM444.324 1244.11H356.757L356.757 1156.54H444.324L444.324 1244.11ZM533.189 1067.68V1155.24H445.622L445.622 1067.68H533.189ZM444.324 1067.68L444.324 1155.24H356.757L356.757 1067.68H444.324ZM445.622 1066.38H533.189V978.811H445.622L445.622 1066.38ZM444.324 1066.38H356.757L356.757 978.811H444.324L444.324 1066.38ZM533.189 889.946V977.514H445.622L445.622 889.946L533.189 889.946ZM444.324 889.946L444.324 977.514H356.757L356.757 889.946H444.324ZM445.622 888.649H533.189V801.081H445.622L445.622 888.649ZM444.324 888.649H356.757L356.757 801.081H444.324L444.324 888.649ZM533.189 712.216V799.784H445.622L445.622 712.216H533.189ZM444.324 712.216L444.324 799.784H356.757L356.757 712.216H444.324ZM445.622 710.919H533.189V623.351L445.622 623.351L445.622 710.919ZM444.324 710.919H356.757L356.757 623.351H444.324L444.324 710.919ZM533.189 534.487V622.054H445.622L445.622 534.487H533.189ZM444.324 534.487L444.324 622.054H356.757L356.757 534.487H444.324ZM445.622 533.189H533.189V445.622L445.622 445.622L445.622 533.189ZM444.324 533.189H356.757L356.757 445.622H444.324L444.324 533.189ZM533.189 356.757V444.324H445.622L445.622 356.757L533.189 356.757ZM444.324 356.757L444.324 444.324H356.757L356.757 356.757H444.324ZM445.622 355.459H533.189V267.892L445.622 267.892L445.622 355.459ZM444.324 355.459H356.757L356.757 267.892H444.324L444.324 355.459ZM533.189 179.027V266.595H445.622L445.622 179.027L533.189 179.027ZM444.324 179.027L444.324 266.595H356.757L356.757 179.027H444.324ZM445.622 177.73H533.189V90.1622L445.622 90.1622L445.622 177.73ZM444.324 177.73H356.757L356.757 90.1622L444.324 90.1622V177.73ZM444.324 88.8649V1.2973H356.757V88.8649H444.324ZM445.622 88.8649H533.189V1.2973H445.622V88.8649ZM801.081 1423.14H888.648L888.648 1510.7H801.081L801.081 1423.14ZM977.513 1421.84H889.945L889.946 1334.27H977.513V1421.84ZM801.081 1421.84H888.648L888.648 1334.27H801.081L801.081 1421.84ZM977.513 1510.7H889.945L889.946 1423.14H977.513V1510.7ZM712.216 1510.7H799.783L799.783 1423.14H712.216V1510.7ZM799.783 1421.84H712.216V1334.27H799.783L799.783 1421.84ZM623.352 1423.14H710.919V1510.7H623.351L623.352 1423.14ZM623.351 1421.84H710.919V1334.27H623.352L623.351 1421.84ZM534.487 1510.7H622.054L622.054 1423.14H534.487V1510.7ZM622.054 1421.84H534.487V1334.27H622.054L622.054 1421.84ZM977.513 1332.97V1245.41L889.946 1245.41L889.945 1332.97H977.513ZM888.648 1332.97L888.648 1245.41H801.081L801.081 1332.97H888.648ZM712.216 1332.97H799.783L799.783 1245.41H712.216V1332.97ZM710.919 1332.97H623.351L623.352 1245.41H710.919V1332.97ZM534.487 1332.97H622.054L622.054 1245.41L534.487 1245.41V1332.97ZM977.513 1244.11H889.945L889.946 1156.54H977.513V1244.11ZM801.081 1244.11H888.648L888.648 1156.54H801.081L801.081 1244.11ZM799.783 1244.11H712.216V1156.54H799.783L799.783 1244.11ZM623.351 1244.11H710.919V1156.54H623.352L623.351 1244.11ZM622.054 1244.11H534.487V1156.54H622.054L622.054 1244.11ZM977.513 1155.24V1067.68H889.946L889.945 1155.24H977.513ZM888.648 1155.24L888.648 1067.68H801.081L801.081 1155.24H888.648ZM712.216 1155.24H799.783L799.783 1067.68H712.216V1155.24ZM710.919 1155.24H623.351L623.352 1067.68H710.919V1155.24ZM534.487 1155.24H622.054L622.054 1067.68H534.487V1155.24ZM977.513 1066.38H889.945L889.946 978.811H977.513V1066.38ZM801.081 1066.38H888.648L888.648 978.811H801.081L801.081 1066.38ZM799.783 1066.38H712.216V978.811H799.783L799.783 1066.38ZM623.351 1066.38H710.919V978.811H623.352L623.351 1066.38ZM622.054 1066.38H534.487V978.811H622.054L622.054 1066.38ZM977.513 977.514V889.946L889.946 889.946L889.945 977.514H977.513ZM888.648 977.514L888.648 889.946H801.081L801.081 977.514H888.648ZM712.216 977.514H799.783L799.783 889.946H712.216V977.514ZM710.919 977.514H623.352V889.946H710.919V977.514ZM534.487 977.514H622.054V889.946L534.487 889.946V977.514ZM977.513 888.649H889.945L889.946 801.081H977.513V888.649ZM801.081 888.649H888.648L888.648 801.081H801.081L801.081 888.649ZM799.783 888.649H712.216V801.081H799.783L799.783 888.649ZM623.352 888.649H710.919V801.081H623.352V888.649ZM622.054 888.649H534.487V801.081H622.054V888.649ZM977.513 799.784V712.216H889.946L889.945 799.784H977.513ZM888.648 799.784L888.648 712.216H801.081L801.081 799.784H888.648ZM712.216 799.784H799.783L799.783 712.216H712.216V799.784ZM710.919 799.784H623.352V712.216H710.919V799.784ZM534.487 799.784H622.054V712.216H534.487V799.784ZM977.513 710.919H889.945L889.946 623.351L977.513 623.351V710.919ZM801.081 710.919H888.648L888.648 623.351H801.081L801.081 710.919ZM799.783 710.919H712.216V623.351H799.783L799.783 710.919ZM623.352 710.919H710.919V623.351H623.352V710.919ZM622.054 710.919H534.487V623.351L622.054 623.351V710.919ZM977.513 622.054V534.487H889.946L889.945 622.054H977.513ZM888.648 622.054L888.648 534.487H801.081L801.081 622.054H888.648ZM712.216 622.054H799.783L799.783 534.487H712.216V622.054ZM710.919 622.054H623.352V534.487H710.919V622.054ZM534.487 622.054H622.054V534.487H534.487V622.054ZM977.513 533.189H889.945L889.946 445.622L977.513 445.622V533.189ZM801.081 533.189H888.648L888.648 445.622H801.081L801.081 533.189ZM799.783 533.189H712.216V445.622H799.783L799.783 533.189ZM623.352 533.189H710.919V445.622H623.352V533.189ZM622.054 533.189H534.487V445.622L622.054 445.622V533.189ZM977.513 444.324V356.757L889.946 356.757L889.945 444.324H977.513ZM888.648 444.324L888.648 356.757H801.081L801.081 444.324H888.648ZM712.216 444.324H799.783L799.783 356.757H712.216V444.324ZM710.919 444.324H623.352V356.757H710.919V444.324ZM534.487 444.324H622.054V356.757L534.487 356.757V444.324ZM977.513 355.459H889.945L889.946 267.892L977.513 267.892V355.459ZM801.081 355.459H888.648L888.648 267.892H801.081L801.081 355.459ZM799.783 355.459H712.216V267.892H799.783L799.783 355.459ZM623.352 355.459H710.919V267.892H623.352V355.459ZM622.054 355.459H534.487V267.892L622.054 267.892V355.459ZM977.513 266.595V179.027L889.946 179.027L889.945 266.595H977.513ZM888.648 266.595L888.648 179.027H801.081L801.081 266.595H888.648ZM712.216 266.595H799.783L799.783 179.027H712.216V266.595ZM710.919 266.595H623.352V179.027H710.919V266.595ZM534.487 266.595H622.054V179.027L534.487 179.027V266.595ZM977.513 177.73H889.945L889.946 90.1622L977.513 90.1622V177.73ZM801.081 177.73H888.648V90.1622L801.081 90.1622L801.081 177.73ZM799.783 177.73H712.216V90.1622L799.783 90.1622V177.73ZM623.352 177.73H710.919V90.1622L623.352 90.1622V177.73ZM622.054 177.73H534.487V90.1622H622.054V177.73ZM888.648 1.2973V88.8649H801.081V1.2973H888.648ZM977.513 88.8649H889.945V1.2973H977.513V88.8649ZM799.783 1.2973H712.216V88.8649H799.783V1.2973ZM710.919 1.2973V88.8649H623.352V1.2973H710.919ZM622.054 1.2973H534.487V88.8649H622.054V1.2973ZM1332.97 1510.7L1332.97 1423.14H1245.41L1245.41 1510.7H1332.97ZM1332.97 1421.84H1245.41L1245.41 1334.27H1332.97L1332.97 1421.84ZM1244.11 1423.14V1510.7H1156.54V1423.14H1244.11ZM1156.54 1421.84H1244.11V1334.27H1156.54V1421.84ZM1155.24 1510.7L1155.24 1423.14H1067.68V1510.7H1155.24ZM1155.24 1421.84H1067.68V1334.27H1155.24L1155.24 1421.84ZM1066.38 1423.14V1510.7H978.812V1423.14H1066.38ZM978.812 1421.84H1066.38V1334.27H978.812V1421.84ZM1332.97 1245.41L1332.97 1332.97H1245.41L1245.41 1245.41H1332.97ZM1244.11 1332.97H1156.54V1245.41H1244.11V1332.97ZM1067.68 1332.97H1155.24L1155.24 1245.41H1067.68V1332.97ZM1066.38 1332.97H978.812V1245.41L1066.38 1245.41V1332.97ZM1332.97 1244.11H1245.41L1245.41 1156.54H1332.97L1332.97 1244.11ZM1156.54 1244.11H1244.11V1156.54H1156.54V1244.11ZM1155.24 1244.11H1067.68V1156.54H1155.24L1155.24 1244.11ZM978.812 1244.11H1066.38V1156.54H978.812V1244.11ZM1332.97 1067.68L1332.97 1155.24H1245.41L1245.41 1067.68H1332.97ZM1244.11 1155.24H1156.54V1067.68H1244.11V1155.24ZM1067.68 1155.24H1155.24L1155.24 1067.68H1067.68V1155.24ZM1066.38 1155.24H978.812V1067.68H1066.38V1155.24ZM1332.97 1066.38H1245.41L1245.41 978.811H1332.97L1332.97 1066.38ZM1156.54 1066.38H1244.11V978.811H1156.54V1066.38ZM1155.24 1066.38H1067.68V978.811H1155.24L1155.24 1066.38ZM978.812 1066.38H1066.38V978.811H978.812V1066.38ZM1332.97 889.946L1332.97 977.514H1245.41L1245.41 889.946H1332.97ZM1244.11 977.514H1156.54V889.946H1244.11V977.514ZM1067.68 977.514H1155.24L1155.24 889.946H1067.68V977.514ZM1066.38 977.514H978.812V889.946L1066.38 889.946V977.514ZM1332.97 888.649H1245.41L1245.41 801.081H1332.97L1332.97 888.649ZM1156.54 888.649H1244.11V801.081H1156.54V888.649ZM1155.24 888.649H1067.68V801.081H1155.24L1155.24 888.649ZM978.812 888.649H1066.38V801.081H978.812V888.649ZM1332.97 712.216L1332.97 799.784H1245.41L1245.41 712.216H1332.97ZM1244.11 799.784H1156.54V712.216H1244.11V799.784ZM1067.68 799.784H1155.24L1155.24 712.216H1067.68V799.784ZM1066.38 799.784H978.812V712.216H1066.38V799.784ZM1332.97 710.919H1245.41L1245.41 623.351H1332.97L1332.97 710.919ZM1156.54 710.919H1244.11V623.351H1156.54V710.919ZM1155.24 710.919H1067.68V623.351H1155.24L1155.24 710.919ZM978.812 710.919H1066.38V623.351L978.812 623.351V710.919ZM1332.97 534.487L1332.97 622.054H1245.41L1245.41 534.487H1332.97ZM1244.11 622.054H1156.54V534.487H1244.11V622.054ZM1067.68 622.054H1155.24L1155.24 534.487H1067.68V622.054ZM1066.38 622.054H978.812V534.487H1066.38V622.054ZM1332.97 533.189H1245.41L1245.41 445.622H1332.97L1332.97 533.189ZM1156.54 533.189H1244.11V445.622H1156.54V533.189ZM1155.24 533.189H1067.68V445.622H1155.24L1155.24 533.189ZM978.812 533.189H1066.38V445.622L978.812 445.622V533.189ZM1332.97 356.757L1332.97 444.324H1245.41L1245.41 356.757H1332.97ZM1244.11 444.324H1156.54V356.757H1244.11V444.324ZM1067.68 444.324H1155.24L1155.24 356.757H1067.68V444.324ZM1066.38 444.324H978.812V356.757L1066.38 356.757V444.324ZM1332.97 355.459H1245.41L1245.41 267.892H1332.97L1332.97 355.459ZM1156.54 355.459H1244.11V267.892H1156.54V355.459ZM1155.24 355.459H1067.68V267.892H1155.24L1155.24 355.459ZM978.812 355.459H1066.38V267.892L978.812 267.892V355.459ZM1332.97 179.027L1332.97 266.595H1245.41L1245.41 179.027H1332.97ZM1244.11 266.595H1156.54V179.027H1244.11V266.595ZM1067.68 266.595H1155.24L1155.24 179.027H1067.68V266.595ZM1066.38 266.595H978.812V179.027L1066.38 179.027V266.595ZM1332.97 177.73H1245.41L1245.41 90.1622L1332.97 90.1622V177.73ZM1156.54 177.73H1244.11V90.1622L1156.54 90.1622V177.73ZM1155.24 177.73H1067.68V90.1622L1155.24 90.1622V177.73ZM978.812 177.73H1066.38V90.1622H978.812V177.73ZM1332.97 88.8649V1.2973H1245.41V88.8649H1332.97ZM1156.54 1.2973H1244.11V88.8649H1156.54V1.2973ZM1155.24 88.8649V1.2973H1067.68V88.8649H1155.24ZM978.812 1.2973H1066.38V88.8649H978.812V1.2973Z" fill="black" fill-opacity="0.05"/>
</svg>
